<svg width="137" height="48" viewBox="0 0 137 48" fill="none" xmlns="http://www.w3.org/2000/svg">
<g clip-path="url(#clip0_34_8531)">
<path d="M20.1266 5.00001C20.1934 4.98912 20.1934 4.98912 20.2791 4.9891C20.3117 4.98888 20.3443 4.98867 20.3779 4.98844C20.4322 4.98875 20.4322 4.98875 20.4876 4.98906C20.5263 4.98897 20.565 4.98884 20.6038 4.98868C20.711 4.98834 20.8182 4.98854 20.9254 4.98883C21.0418 4.98905 21.1581 4.98877 21.2745 4.98855C21.4787 4.98823 21.6829 4.98824 21.8871 4.98847C22.1908 4.98879 22.4945 4.98863 22.7982 4.98836C23.3407 4.9879 23.8832 4.98794 24.4256 4.98819C24.9008 4.98841 25.376 4.98847 25.8511 4.98837C25.8826 4.98836 25.9141 4.98835 25.9466 4.98835C26.0744 4.98832 26.2022 4.98829 26.33 4.98826C27.5305 4.988 28.7309 4.98824 29.9314 4.98871C30.9971 4.98912 32.0629 4.98908 33.1286 4.98867C34.3258 4.9882 35.523 4.98802 36.7202 4.98828C36.848 4.98831 36.9758 4.98834 37.1036 4.98837C37.1508 4.98838 37.1508 4.98838 37.1989 4.98839C37.6732 4.98849 38.1475 4.98837 38.6218 4.98815C39.1619 4.9879 39.702 4.98796 40.2421 4.98844C40.544 4.98869 40.8459 4.98871 41.1478 4.98838C41.35 4.98818 41.5522 4.98831 41.7544 4.98868C41.8693 4.98889 41.9842 4.98897 42.099 4.98865C43.5585 4.98492 45.1958 5.20002 46.3434 6.18932C46.3596 6.20321 46.3758 6.21709 46.3926 6.23139C47.0976 6.84047 47.5471 7.66211 47.6194 8.59696C47.6551 9.32611 47.5844 9.99259 47.3584 10.6855C47.3517 10.7061 47.345 10.7267 47.3381 10.7479C46.9321 11.9689 46.0475 13.0327 45.0963 13.8763C45.0794 13.8915 45.0625 13.9067 45.045 13.9223C44.7738 14.165 44.4919 14.388 44.1973 14.6015C44.1779 14.6157 44.1586 14.6299 44.1387 14.6445C43.6411 15.0078 43.1159 15.3257 42.5732 15.6168C42.5489 15.6299 42.5245 15.643 42.4995 15.6564C42.4245 15.6966 42.3493 15.7365 42.2742 15.7763C42.2511 15.7886 42.2281 15.8008 42.2043 15.8134C42.097 15.8698 41.9912 15.923 41.8772 15.9649C41.9923 16.1007 41.9923 16.1007 42.1117 16.2328C42.553 16.7066 42.8525 17.2611 43.03 17.8812C43.0358 17.901 43.0415 17.9208 43.0475 17.9412C43.1427 18.2908 43.1652 18.6464 43.1641 19.0071C43.1641 19.0382 43.1641 19.0382 43.1641 19.0699C43.1573 21.0213 42.0107 22.9846 40.7269 24.3892C40.6898 24.4303 40.6528 24.4716 40.6167 24.5137C40.4701 24.6846 40.313 24.8437 40.1535 25.0026C40.1273 25.0289 40.1011 25.0552 40.0741 25.0823C39.9258 25.2304 39.7749 25.3727 39.6152 25.5084C39.5859 25.5339 39.5566 25.5593 39.5274 25.5848C39.2742 25.8016 39.0123 26.0053 38.7451 26.2046C38.724 26.2204 38.7029 26.2362 38.6811 26.2525C36.6256 27.7813 34.1448 28.7725 31.5648 28.7642C31.5046 28.7643 31.4443 28.7643 31.3841 28.7644C31.2205 28.7645 31.057 28.7643 30.8934 28.764C30.7163 28.7637 30.5392 28.7638 30.3621 28.7639C30.0559 28.7639 29.7497 28.7637 29.4434 28.7634C29.1226 28.7631 28.8018 28.7628 28.481 28.7628C28.451 28.7628 28.451 28.7628 28.4203 28.7628C28.3186 28.7627 28.217 28.7627 28.1153 28.7627C27.3968 28.7626 26.6784 28.7622 25.96 28.7616C25.2624 28.7611 24.5649 28.7607 23.8673 28.7605C23.835 28.7604 23.835 28.7604 23.8021 28.7604C23.5858 28.7604 23.3695 28.7603 23.1532 28.7602C22.7126 28.7601 22.272 28.7599 21.8315 28.7597C21.8011 28.7597 21.8011 28.7597 21.7701 28.7597C20.4199 28.7592 19.0697 28.7582 17.7195 28.7573C17.7047 28.7096 17.7047 28.7096 17.6896 28.6609C17.6765 28.6187 17.6634 28.5766 17.6503 28.5344C17.6438 28.5135 17.6373 28.4926 17.6306 28.471C17.5832 28.3188 17.5316 28.1688 17.4741 28.0201C17.4608 27.985 17.4608 27.985 17.4472 27.9492C17.4185 27.8741 17.3896 27.799 17.3606 27.7239C17.3401 27.6702 17.3196 27.6166 17.299 27.5629C17.1564 27.1911 17.0109 26.8205 16.8643 26.4503C16.6524 25.9155 16.4436 25.3795 16.2405 24.8412C16.2322 24.8193 16.224 24.7975 16.2154 24.7749C15.2187 22.1284 14.5868 19.408 14.7904 16.1099C14.7942 16.0746 14.7979 16.0392 14.8018 16.0028C15.0478 13.7185 15.7609 11.5316 17.3715 8.62597C17.3874 8.60002 17.4033 8.57408 17.4197 8.54736C17.8296 7.88111 18.2817 7.24052 18.7636 6.62444C18.7894 6.59106 18.8153 6.55767 18.8412 6.52427C19.0091 6.30812 19.1821 6.09713 19.3603 5.8894C19.403 5.8396 19.4454 5.78961 19.4878 5.73959C19.6561 5.54142 19.8279 5.34749 20.0054 5.1574C20.0715 5.08719 20.0715 5.08719 20.1266 5.00001ZM23.6647 9.09009C23.643 9.13957 23.643 9.13957 23.6209 9.19006C23.566 9.3155 23.511 9.44093 23.456 9.56635C23.4325 9.62006 23.4089 9.67378 23.3854 9.7275C23.2197 10.1059 23.0518 10.4832 22.8817 10.8596C22.8582 10.9116 22.8346 10.9637 22.8111 11.0158C22.7952 11.051 22.7952 11.051 22.779 11.087C22.637 11.4018 22.498 11.7179 22.3597 12.0344C22.1774 12.4513 21.9923 12.8668 21.805 13.2814C21.6395 13.6479 21.4767 14.0155 21.3156 14.384C21.1334 14.8009 20.9483 15.2164 20.761 15.631C20.5955 15.9975 20.4327 16.3651 20.2716 16.7336C20.0893 17.1505 19.9043 17.566 19.717 17.9806C19.5515 18.3471 19.3887 18.7147 19.2276 19.0832C19.0453 19.5001 18.8602 19.9156 18.6729 20.3302C18.5074 20.6968 18.3446 21.0644 18.1835 21.4328C18.0119 21.8255 17.8379 22.2171 17.6615 22.6076C17.4885 22.991 17.3167 23.3749 17.1471 23.7598C17.1242 23.8117 17.1013 23.8637 17.0783 23.9156C17.0463 23.9877 17.0146 24.06 16.9828 24.1322C16.9735 24.1532 16.9642 24.1742 16.9546 24.1958C16.9087 24.301 16.8677 24.4061 16.8319 24.5152C16.8243 24.5383 16.8166 24.5615 16.8088 24.5853C16.8031 24.6028 16.7974 24.6202 16.7915 24.6382C17.7358 24.6402 18.6801 24.6417 19.6244 24.6426C19.7361 24.6427 19.8478 24.6428 19.9596 24.643C19.9929 24.643 19.9929 24.643 20.027 24.643C20.3861 24.6434 20.7453 24.6441 21.1044 24.6449C21.4735 24.6457 21.8426 24.6462 22.2116 24.6464C22.439 24.6465 22.6664 24.6469 22.8937 24.6476C23.0687 24.6481 23.2436 24.6481 23.4186 24.648C23.4899 24.648 23.5612 24.6482 23.6325 24.6486C24.1313 24.6508 24.6066 24.6238 25.0857 24.4732C25.1216 24.4621 25.1216 24.4621 25.1582 24.4508C25.788 24.2491 26.3397 23.9171 26.8548 23.5069C26.8709 23.4942 26.887 23.4814 26.9037 23.4683C27.3321 23.1273 27.7251 22.7344 28.0438 22.2886C28.0563 22.2713 28.0687 22.254 28.0815 22.2363C28.2728 21.9679 28.4291 21.689 28.5658 21.3893C28.5896 21.3381 28.5896 21.3381 28.6138 21.2858C28.9332 20.546 29.0554 19.62 28.7616 18.853C28.5778 18.448 28.2519 18.1811 27.8408 18.0244C27.7588 17.9978 27.6763 17.9757 27.5925 17.9555C27.5737 17.951 27.555 17.9465 27.5356 17.9419C27.1919 17.8677 26.8361 17.8751 26.4862 17.8748C26.4387 17.8747 26.3912 17.8745 26.3437 17.8744C26.2422 17.8741 26.1408 17.8738 26.0393 17.8736C25.8788 17.8733 25.7183 17.8727 25.5578 17.8721C25.1016 17.8703 24.6454 17.8687 24.1893 17.8678C23.9367 17.8672 23.6842 17.8664 23.4317 17.8652C23.2983 17.8646 23.1649 17.8641 23.0315 17.8641C22.9062 17.864 22.781 17.8636 22.6558 17.8628C22.6099 17.8626 22.564 17.8625 22.5181 17.8626C22.4553 17.8627 22.3926 17.8623 22.3299 17.8618C22.2948 17.8617 22.2598 17.8616 22.2236 17.8615C22.1162 17.8491 22.0457 17.8195 21.9536 17.7634C21.8965 17.649 21.9178 17.5276 21.9501 17.4077C22.0335 17.1841 22.124 16.966 22.2242 16.7493C22.2689 16.6526 22.313 16.5557 22.3571 16.4588C22.3665 16.4381 22.3759 16.4173 22.3857 16.396C22.4949 16.1556 22.6008 15.9138 22.7067 15.6719C22.7402 15.5953 22.7738 15.5187 22.8073 15.4421C22.9301 15.1622 22.9301 15.1622 23.0524 14.8821C23.0852 14.8071 23.118 14.7321 23.1509 14.6572C23.1793 14.5925 23.2076 14.5277 23.2358 14.4628C23.3744 14.1482 23.4848 13.9465 23.8097 13.8111C23.9874 13.7666 24.1629 13.7567 24.3455 13.7565C24.366 13.7564 24.3866 13.7564 24.4077 13.7563C24.4758 13.7561 24.544 13.7562 24.6121 13.7562C24.6612 13.7561 24.7104 13.756 24.7595 13.7559C24.8651 13.7557 24.9707 13.7555 25.0763 13.7554C25.2441 13.7553 25.4118 13.7548 25.5795 13.7542C25.6371 13.754 25.6948 13.7539 25.7524 13.7537C25.7813 13.7536 25.8101 13.7535 25.8399 13.7534C26.23 13.7522 26.6201 13.7512 27.0102 13.7509C27.2738 13.7506 27.5373 13.75 27.8009 13.7488C27.9399 13.7483 28.079 13.7479 28.218 13.7481C29.6311 13.7493 31.0528 13.5086 32.1909 12.6C32.2082 12.5864 32.2254 12.5727 32.2431 12.5587C32.4769 12.3714 32.682 12.1771 32.858 11.9328C32.8803 11.9018 32.9027 11.8708 32.9257 11.8389C33.2336 11.395 33.4112 10.8806 33.322 10.3374C33.2667 10.0933 33.174 9.91058 33.003 9.72826C32.9753 9.6983 32.9753 9.6983 32.9471 9.66775C32.6888 9.41379 32.3597 9.29765 32.0151 9.21156C31.9821 9.20308 31.9821 9.20308 31.9485 9.19443C31.4141 9.07231 30.8533 9.08176 30.3086 9.0835C30.2357 9.08352 30.1627 9.08351 30.0898 9.08348C29.9341 9.08346 29.7785 9.08362 29.6229 9.08395C29.3979 9.08443 29.1729 9.08458 28.9479 9.08465C28.5827 9.08478 28.2174 9.08516 27.8522 9.08571C27.4979 9.08625 27.1436 9.08666 26.7892 9.0869C26.7673 9.08692 26.7454 9.08693 26.7228 9.08695C26.6128 9.08702 26.5028 9.0871 26.3928 9.08717C25.4834 9.08777 24.5741 9.08879 23.6647 9.09009Z" fill="#171717"/>
<path d="M115.32 4.98883C115.435 4.98906 115.549 4.98877 115.664 4.98855C115.864 4.98824 116.064 4.98824 116.264 4.98847C116.561 4.9888 116.859 4.98863 117.156 4.98836C117.687 4.98791 118.218 4.98794 118.749 4.98819C119.214 4.98841 119.678 4.98847 120.142 4.98837C120.173 4.98836 120.204 4.98835 120.236 4.98835C120.361 4.98832 120.487 4.98829 120.612 4.98826C121.786 4.988 122.959 4.98824 124.133 4.98871C125.176 4.98912 126.218 4.98908 127.261 4.98867C128.434 4.9882 129.607 4.98801 130.78 4.98828C130.905 4.98831 131.03 4.98834 131.155 4.98837C131.201 4.98838 131.201 4.98838 131.248 4.98839C131.712 4.98849 132.177 4.98837 132.641 4.98815C133.169 4.9879 133.696 4.98796 134.224 4.98844C134.519 4.98869 134.815 4.98871 135.11 4.98838C135.307 4.98818 135.504 4.9883 135.701 4.98868C135.813 4.98889 135.925 4.98896 136.038 4.98865C136.159 4.98832 136.28 4.98865 136.4 4.98906C136.435 4.98886 136.471 4.98865 136.507 4.98844C136.807 4.99047 136.807 4.99047 136.942 5.08703C137.027 5.21401 137.022 5.31502 137 5.46413C136.958 5.586 136.906 5.7013 136.85 5.81709C136.822 5.87563 136.794 5.93445 136.767 5.99338C136.738 6.0553 136.709 6.1172 136.68 6.17901C136.591 6.36792 136.507 6.55865 136.424 6.75011C136.383 6.8451 136.342 6.93997 136.3 7.03485C136.291 7.05467 136.283 7.0745 136.274 7.09492C136.161 7.35402 136.047 7.61281 135.933 7.87149C135.909 7.92668 135.884 7.98187 135.86 8.03708C135.477 8.90803 135.477 8.90803 135.157 9.04815C135.021 9.09802 134.898 9.10231 134.754 9.10125C134.728 9.1014 134.701 9.10155 134.673 9.1017C134.584 9.1021 134.494 9.10187 134.404 9.10165C134.339 9.10181 134.275 9.10201 134.21 9.10224C134.031 9.10276 133.853 9.10274 133.675 9.10264C133.502 9.10262 133.329 9.10301 133.157 9.1034C132.804 9.10416 132.451 9.10453 132.098 9.10466C131.748 9.10479 131.399 9.10511 131.049 9.10566C131.028 9.10569 131.006 9.10573 130.983 9.10576C130.873 9.10594 130.763 9.10612 130.652 9.10629C129.871 9.10756 129.089 9.10842 128.307 9.10905C127.548 9.10965 126.788 9.11044 126.029 9.11148C125.994 9.11153 125.994 9.11153 125.958 9.11158C125.723 9.1119 125.488 9.11222 125.253 9.11255C124.774 9.11322 124.295 9.11386 123.816 9.11448C123.794 9.11451 123.772 9.11454 123.749 9.11457C122.279 9.11649 120.809 9.11784 119.338 9.11909C119.399 9.17965 119.459 9.24015 119.519 9.30062C119.536 9.31766 119.553 9.33471 119.57 9.35227C119.675 9.45771 119.783 9.55817 119.897 9.6546C119.968 9.71684 120.033 9.78428 120.099 9.85165C120.152 9.90418 120.208 9.95316 120.265 10.002C120.367 10.0902 120.462 10.184 120.556 10.2802C120.631 10.354 120.711 10.4221 120.79 10.4907C120.863 10.555 120.93 10.6238 120.998 10.6929C121.051 10.7454 121.107 10.7944 121.164 10.8432C121.266 10.9314 121.361 11.0252 121.455 11.1214C121.53 11.1953 121.61 11.2633 121.689 11.3319C121.762 11.3962 121.829 11.465 121.897 11.5341C121.95 11.5866 122.006 11.6356 122.063 11.6845C122.165 11.7726 122.26 11.8664 122.354 11.9626C122.429 12.0365 122.509 12.1046 122.588 12.1732C122.661 12.2375 122.728 12.3062 122.796 12.3753C122.849 12.4278 122.905 12.4768 122.962 12.5257C123.064 12.6138 123.159 12.7076 123.253 12.8039C123.328 12.8777 123.408 12.9458 123.488 13.0144C123.56 13.0787 123.627 13.1474 123.695 13.2165C123.749 13.2691 123.804 13.318 123.861 13.3669C123.961 13.453 124.054 13.5439 124.145 13.6388C124.222 13.7129 124.301 13.782 124.382 13.8516C124.476 13.9351 124.568 14.0217 124.66 14.1084C124.701 14.1467 124.742 14.1851 124.782 14.2234C124.803 14.2428 124.824 14.2622 124.845 14.2822C124.943 14.3749 125.042 14.4674 125.14 14.5598C125.16 14.5778 125.179 14.5958 125.199 14.6144C125.346 14.7528 125.494 14.8908 125.642 15.0288C125.794 15.1704 125.945 15.3123 126.096 15.4542C126.226 15.5763 126.357 15.6981 126.487 15.8199C126.657 15.9781 126.826 16.1367 126.995 16.2954C127.107 16.4007 127.22 16.5059 127.332 16.6108C127.368 16.6445 127.404 16.6782 127.441 16.7119C127.53 16.7958 127.62 16.8795 127.711 16.9628C127.951 17.1855 128.186 17.414 128.418 17.6455C128.439 17.6669 128.439 17.6669 128.461 17.6887C128.626 17.8534 128.787 18.0206 128.938 18.1985C128.965 18.2299 128.993 18.2613 129.02 18.2926C129.247 18.5521 129.458 18.8212 129.663 19.0977C129.678 19.1176 129.692 19.1374 129.708 19.1579C130.58 20.3337 131.175 21.769 130.959 23.2528C130.732 24.4912 129.962 25.45 128.952 26.1609C128.678 26.35 128.391 26.513 128.097 26.6687C128.078 26.6786 128.059 26.6886 128.04 26.6988C127.407 27.0321 126.746 27.2884 126.067 27.5099C126.017 27.5264 126.017 27.5264 125.966 27.5432C123.739 28.278 121.364 28.617 119.027 28.7252C118.981 28.7273 118.936 28.7295 118.89 28.7317C118.394 28.7557 117.899 28.7616 117.402 28.7613C117.293 28.7613 117.183 28.7615 117.073 28.7616C116.857 28.7618 116.64 28.7619 116.424 28.7619C116.164 28.7619 115.905 28.7621 115.645 28.7623C115.018 28.7628 114.391 28.7629 113.765 28.7631C113.468 28.7632 113.171 28.7633 112.875 28.7634C111.859 28.7637 110.843 28.7641 109.827 28.7642C109.763 28.7642 109.7 28.7642 109.636 28.7642C109.572 28.7642 109.509 28.7642 109.445 28.7642C109.317 28.7642 109.189 28.7642 109.061 28.7642C109.029 28.7642 108.998 28.7642 108.965 28.7642C107.935 28.7643 106.904 28.7648 105.874 28.7655C104.783 28.7662 103.693 28.7666 102.603 28.7666C102.483 28.7666 102.363 28.7666 102.244 28.7666C102.214 28.7666 102.185 28.7667 102.155 28.7667C101.681 28.7667 101.206 28.767 100.732 28.7674C100.256 28.7678 99.7806 28.7679 99.3047 28.7677C99.0219 28.7676 98.739 28.7677 98.4562 28.7681C98.2674 28.7684 98.0787 28.7684 97.8899 28.7681C97.7823 28.7679 97.6747 28.7679 97.567 28.7683C97.4512 28.7687 97.3354 28.7684 97.2196 28.7681C97.186 28.7683 97.1525 28.7685 97.1179 28.7687C96.9196 28.7674 96.7526 28.7608 96.6035 28.6153C96.5377 28.4843 96.5803 28.3313 96.6233 28.1969C96.6504 28.1289 96.6801 28.0626 96.7111 27.9962C96.7224 27.9711 96.7337 27.9461 96.7453 27.9203C96.7822 27.8383 96.8198 27.7566 96.8574 27.6749C96.8835 27.6173 96.9096 27.5596 96.9357 27.5019C96.99 27.3816 97.0445 27.2614 97.0992 27.1412C97.1801 26.9629 97.2599 26.7841 97.3392 26.605C97.3519 26.5763 97.3646 26.5476 97.3777 26.518C97.4029 26.4611 97.4282 26.4041 97.4533 26.3472C97.5331 26.1669 97.613 25.9866 97.6936 25.8067C97.7421 25.6982 97.7897 25.5895 97.8372 25.4806C97.8624 25.4234 97.8877 25.3661 97.913 25.3089C97.93 25.2693 97.93 25.2693 97.9473 25.2289C98.0468 25.0054 98.1619 24.8203 98.3932 24.7207C98.5891 24.6465 98.7837 24.6297 98.9915 24.6306C99.0178 24.6305 99.0441 24.6304 99.0712 24.6302C99.1591 24.6299 99.247 24.63 99.3349 24.6301C99.3986 24.63 99.4624 24.6298 99.5261 24.6296C99.7011 24.6291 99.8761 24.629 100.051 24.629C100.24 24.6289 100.429 24.6284 100.617 24.628C100.944 24.6274 101.271 24.627 101.598 24.6267C101.941 24.6264 102.284 24.6259 102.627 24.6254C102.648 24.6253 102.67 24.6253 102.692 24.6252C102.8 24.6251 102.908 24.6249 103.017 24.6247C103.784 24.6234 104.551 24.6223 105.318 24.6214C106.063 24.6205 106.808 24.6195 107.553 24.6184C107.576 24.6183 107.599 24.6183 107.623 24.6183C107.854 24.6179 108.084 24.6175 108.315 24.6172C108.785 24.6164 109.255 24.6157 109.725 24.615C109.747 24.615 109.768 24.6149 109.79 24.6149C111.233 24.6127 112.676 24.6109 114.118 24.6092C114.064 24.5587 114.009 24.5083 113.954 24.4579C113.939 24.4438 113.924 24.4297 113.908 24.4151C113.786 24.3029 113.659 24.1981 113.53 24.0942C113.448 24.0265 113.37 23.9559 113.292 23.884C113.188 23.7884 113.083 23.697 112.973 23.6084C112.835 23.4971 112.704 23.3794 112.574 23.2594C112.496 23.1894 112.416 23.123 112.335 23.0573C112.197 22.946 112.066 22.8283 111.936 22.7083C111.858 22.6383 111.778 22.5719 111.697 22.5061C111.559 22.3948 111.428 22.2771 111.298 22.1571C111.22 22.0871 111.14 22.0207 111.059 21.955C110.921 21.8437 110.79 21.7261 110.66 21.606C110.582 21.5357 110.501 21.4695 110.419 21.4038C110.258 21.2742 110.114 21.1321 109.971 20.9832C110.032 20.9172 110.092 20.8729 110.17 20.8293C110.192 20.8172 110.213 20.805 110.235 20.7925C110.28 20.7675 110.325 20.7425 110.37 20.7177C110.531 20.6258 110.64 20.551 110.696 20.3656C110.696 20.2243 110.65 20.1381 110.582 20.0169C110.464 19.7987 110.464 19.7987 110.464 19.7359C110.483 19.7257 110.501 19.7155 110.52 19.7051C110.861 19.5154 111.201 19.3244 111.537 19.1267C111.803 18.9709 112.07 18.8195 112.339 18.6698C112.574 18.5384 112.807 18.403 113.04 18.2664C113.299 18.1142 113.562 17.968 113.826 17.8231C113.994 17.7304 114.16 17.6352 114.321 17.5313C114.187 17.1289 114.019 16.7497 113.719 16.4411C113.683 16.4 113.683 16.4 113.683 16.342C113.224 16.6009 112.766 16.8619 112.308 17.1238C112.206 17.1824 112.103 17.241 112.001 17.2996C111.984 17.3091 111.967 17.3187 111.95 17.3285C111.866 17.3767 111.781 17.4249 111.697 17.4731C111.527 17.5705 111.356 17.6679 111.186 17.7654C110.984 17.8811 110.782 17.9964 110.58 18.1115C110.563 18.1212 110.546 18.131 110.528 18.141C110.41 18.2081 110.292 18.275 110.174 18.3417C110.128 18.3677 110.128 18.3677 110.082 18.3942C110.054 18.4101 110.026 18.4259 109.997 18.4422C109.972 18.4561 109.947 18.47 109.922 18.4844C109.861 18.5149 109.806 18.5332 109.739 18.5466C109.724 18.5183 109.708 18.49 109.693 18.4608C109.672 18.4235 109.651 18.3862 109.63 18.349C109.62 18.3303 109.61 18.3117 109.6 18.2925C109.529 18.1658 109.471 18.0849 109.335 18.0312C108.881 17.9796 108.196 18.5269 107.835 18.7732C107.767 18.8076 107.767 18.8076 107.712 18.8012C107.638 18.7739 107.599 18.7385 107.542 18.6845C107.522 18.6651 107.501 18.6457 107.48 18.6258C107.459 18.605 107.438 18.5843 107.416 18.5629C107.393 18.5418 107.371 18.5208 107.349 18.499C107.207 18.363 107.067 18.2248 106.929 18.0848C106.873 18.0295 106.816 17.9777 106.756 17.9265C106.653 17.8384 106.557 17.7438 106.462 17.6473C106.368 17.5521 106.274 17.4586 106.172 17.3718C106.055 17.2721 105.948 17.1635 105.84 17.0534C105.743 16.9544 105.641 16.8625 105.536 16.7717C105.082 16.375 104.659 15.9468 104.296 15.4645C104.258 15.4136 104.219 15.3633 104.18 15.313C103.614 14.5761 103.237 13.7218 103.098 12.8031C103.094 12.7787 103.09 12.7544 103.086 12.7293C102.94 11.5782 103.308 10.4033 103.997 9.48464C104.429 8.92679 104.913 8.44152 105.476 8.0168C105.493 8.00388 105.51 7.99096 105.527 7.97764C107.625 6.37724 110.28 5.4972 113.844 5.04013C113.866 5.03825 113.889 5.03637 113.913 5.03444C114.382 4.99674 114.849 4.98749 115.32 4.98883ZM117.54 11.2657C117.499 11.3483 117.503 11.4058 117.511 11.4977C117.552 11.5851 117.552 11.5851 117.613 11.6754C117.637 11.7138 117.661 11.7523 117.685 11.7909C117.699 11.8129 117.713 11.8349 117.727 11.8575C117.809 11.9933 117.887 12.1318 117.966 12.2701C118.123 12.5473 118.282 12.8236 118.443 13.0986C118.598 13.3622 118.748 13.6281 118.896 13.8951C119.012 14.103 119.131 14.3092 119.251 14.5145C119.39 14.7499 119.525 14.9867 119.657 15.2252C119.81 15.4999 119.966 15.7726 120.126 16.0434C120.198 16.1665 120.27 16.2895 120.337 16.4158C120.353 16.4445 120.353 16.4445 120.369 16.4738C120.395 16.5223 120.42 16.5712 120.445 16.6201C120.514 16.7098 120.562 16.7281 120.673 16.7481C120.884 16.7107 121.069 16.5725 121.224 16.429C121.288 16.3507 121.288 16.3507 121.278 16.2793C121.242 16.1628 121.187 16.0596 121.129 15.9522C121.116 15.9281 121.104 15.9039 121.09 15.8791C120.962 15.6411 120.825 15.4092 120.686 15.1773C120.375 14.6545 120.076 14.1237 119.774 13.595C119.677 13.4252 119.58 13.2555 119.483 13.0858C119.455 13.0353 119.426 12.9848 119.397 12.9343C119.308 12.7792 119.22 12.6242 119.131 12.4693C119.09 12.3985 119.05 12.3277 119.009 12.257C118.99 12.2223 118.97 12.1877 118.95 12.1531C118.843 11.966 118.737 11.7785 118.633 11.5893C118.453 11.2282 118.453 11.2282 118.178 10.9466C117.955 10.9466 117.711 11.1289 117.54 11.2657ZM116.322 11.9618C116.294 12.0591 116.286 12.1153 116.321 12.2112C116.336 12.2362 116.35 12.2612 116.365 12.287C116.381 12.3156 116.398 12.3442 116.415 12.3736C116.433 12.404 116.451 12.4345 116.469 12.4659C116.497 12.514 116.497 12.514 116.525 12.563C116.564 12.6299 116.603 12.6967 116.642 12.7633C116.695 12.8537 116.748 12.9443 116.801 13.035C116.867 13.1491 116.934 13.2631 117 13.377C117.113 13.5693 117.223 13.7626 117.334 13.9561C117.343 13.9731 117.353 13.99 117.363 14.0075C117.412 14.0937 117.461 14.1799 117.51 14.2661C117.598 14.4191 117.685 14.572 117.772 14.7249C117.821 14.8095 117.869 14.8941 117.917 14.9786C117.937 15.0125 117.956 15.0463 117.975 15.0802C118.014 15.1478 118.053 15.2155 118.091 15.2832C118.101 15.3 118.111 15.3167 118.12 15.334C118.14 15.3678 118.159 15.4017 118.178 15.4355C118.227 15.5199 118.275 15.6044 118.323 15.6888C118.422 15.8612 118.52 16.0336 118.619 16.2061C118.715 16.3754 118.812 16.5446 118.909 16.7138C118.959 16.8013 119.009 16.8889 119.058 16.9765C119.087 17.0267 119.116 17.0769 119.145 17.127C119.157 17.1495 119.17 17.1719 119.183 17.195C119.201 17.2256 119.201 17.2256 119.219 17.2568C119.228 17.2742 119.238 17.2917 119.249 17.3097C119.284 17.3625 119.319 17.4036 119.367 17.4443C119.513 17.4403 119.625 17.3775 119.748 17.3047C119.775 17.2897 119.775 17.2897 119.801 17.2745C119.902 17.2161 119.994 17.1612 120.063 17.0672C120.095 16.9025 120.017 16.789 119.937 16.652C119.917 16.6175 119.917 16.6175 119.897 16.5823C119.856 16.5116 119.815 16.4413 119.773 16.371C119.751 16.3319 119.728 16.2928 119.705 16.2537C119.658 16.1744 119.612 16.0953 119.565 16.0162C119.252 15.4856 118.948 14.9491 118.643 14.4139C118.556 14.2613 118.469 14.1086 118.381 13.956C118.352 13.9054 118.324 13.8547 118.295 13.804C118.207 13.6509 118.12 13.4978 118.032 13.3447C117.993 13.2761 117.953 13.2074 117.914 13.1388C117.895 13.1049 117.875 13.071 117.856 13.037C117.751 12.8536 117.647 12.6699 117.544 12.485C117.526 12.4525 117.508 12.42 117.49 12.3865C117.456 12.3257 117.422 12.2648 117.389 12.2039C117.229 11.9057 117.229 11.9057 117.018 11.6428C116.778 11.6175 116.497 11.8064 116.322 11.9618ZM115.448 12.4432C115.407 12.4671 115.407 12.4671 115.364 12.4916C115.336 12.5082 115.308 12.5249 115.278 12.542C115.223 12.5726 115.168 12.6032 115.113 12.6336C115.055 12.6658 114.997 12.6982 114.939 12.7305C114.892 12.7568 114.892 12.7568 114.845 12.7836C114.628 12.905 114.414 13.0291 114.2 13.1548C113.981 13.2832 113.761 13.4079 113.538 13.5283C113.257 13.6803 112.98 13.8401 112.704 14.0023C112.546 14.0956 112.386 14.1872 112.226 14.2787C111.934 14.4466 111.644 14.6164 111.363 14.8046C111.373 14.8525 111.382 14.9003 111.392 14.9496C111.562 14.988 111.73 15.0133 111.903 15.0312C112.151 15.0592 112.377 15.1269 112.61 15.2107C112.64 15.2214 112.67 15.2322 112.701 15.2432C113.103 15.3987 113.441 15.6364 113.757 15.9262C113.792 15.9583 113.828 15.9894 113.864 16.0203C114.407 16.5119 114.755 17.3624 114.814 18.0825C114.845 18.7804 114.771 19.4421 114.429 20.0634C114.399 20.1351 114.411 20.1866 114.437 20.258C114.595 20.2735 114.689 20.2241 114.818 20.142C114.862 20.1151 114.906 20.0883 114.95 20.0615C114.974 20.0466 114.999 20.0317 115.024 20.0164C115.161 19.934 115.3 19.8552 115.439 19.7761C115.491 19.7465 115.543 19.7167 115.595 19.687C115.72 19.6159 115.844 19.5449 115.969 19.4738C116.089 19.4053 116.209 19.3367 116.33 19.2681C116.347 19.2585 116.363 19.2489 116.381 19.239C116.644 19.0887 116.906 18.9363 117.167 18.7831C117.375 18.6617 117.584 18.5438 117.794 18.4269C118.024 18.2987 118.253 18.1685 118.479 18.0335C118.503 18.0192 118.528 18.0049 118.552 17.9901C118.575 17.9768 118.597 17.9635 118.62 17.9498C118.648 17.9325 118.648 17.9325 118.678 17.9148C118.732 17.8774 118.775 17.8441 118.816 17.7924C118.826 17.5407 118.703 17.3603 118.577 17.1506C118.556 17.1144 118.535 17.0782 118.513 17.042C118.471 16.9688 118.428 16.8957 118.384 16.8226C118.299 16.6781 118.217 16.5319 118.135 16.3855C117.987 16.1222 117.837 15.8598 117.687 15.5976C117.548 15.3558 117.411 15.1132 117.276 14.8699C117.112 14.5763 116.944 14.2855 116.774 13.9956C116.684 13.8416 116.595 13.6869 116.506 13.532C116.349 13.2584 116.19 12.9864 116.025 12.7179C116.01 12.6924 115.994 12.667 115.978 12.6408C115.963 12.6175 115.949 12.5942 115.934 12.5702C115.921 12.5499 115.909 12.5297 115.896 12.5088C115.842 12.4305 115.842 12.4305 115.771 12.3679C115.64 12.3519 115.561 12.3766 115.448 12.4432Z" fill="#171717"/>
<path d="M68.698 4.9962C68.7403 4.99615 68.7826 4.99609 68.8249 4.99601C68.9407 4.99585 69.0565 4.99587 69.1723 4.99592C69.2984 4.99594 69.4246 4.9958 69.5507 4.99567C69.8007 4.99545 70.0506 4.99539 70.3006 4.99537C70.6 4.99535 70.8995 4.99515 71.199 4.99496C71.9224 4.99449 72.6459 4.99432 73.3694 4.99418C73.7116 4.99411 74.0537 4.99401 74.3959 4.9939C75.5671 4.99353 76.7382 4.99322 77.9094 4.99312C77.9829 4.99311 78.0564 4.9931 78.1298 4.9931C78.2035 4.99309 78.2771 4.99308 78.3508 4.99308C78.4985 4.99307 78.6463 4.99305 78.794 4.99304C78.849 4.99303 78.849 4.99303 78.905 4.99303C80.0941 4.99292 81.2831 4.99246 82.4722 4.99179C83.7293 4.99107 84.9863 4.99067 86.2434 4.99064C86.3813 4.99064 86.5192 4.99063 86.657 4.99062C86.708 4.99062 86.708 4.99062 86.7599 4.99062C87.307 4.99058 87.854 4.99026 88.4011 4.98984C88.9504 4.98943 89.4996 4.98933 90.0489 4.98956C90.3755 4.98969 90.7021 4.98958 91.0287 4.98912C91.2466 4.98884 91.4645 4.98887 91.6824 4.98916C91.8067 4.98932 91.931 4.98934 92.0553 4.98898C92.1683 4.98865 92.2812 4.98872 92.3942 4.98911C92.4349 4.98918 92.4756 4.98911 92.5163 4.98887C92.5715 4.98857 92.6267 4.98885 92.6818 4.98917C92.7124 4.98916 92.743 4.98915 92.7745 4.98914C92.8928 5.00405 92.9978 5.04168 93.0746 5.13598C93.1361 5.36356 93.0657 5.52155 92.9658 5.72339C92.9362 5.78565 92.9067 5.84798 92.8772 5.91035C92.8651 5.93591 92.8651 5.93591 92.8528 5.96199C92.7507 6.17811 92.6556 6.39729 92.56 6.61631C92.5044 6.74371 92.4486 6.87103 92.3928 6.99836C92.3815 7.02437 92.3701 7.05038 92.3583 7.07718C92.235 7.3588 92.1113 7.64021 91.9872 7.92148C91.9632 7.97608 91.9391 8.03069 91.9151 8.08532C91.8815 8.16165 91.8479 8.23795 91.8142 8.31424C91.8044 8.33655 91.7946 8.35886 91.7845 8.38185C91.6466 8.69364 91.54 8.92376 91.2077 9.06108C91.07 9.09827 90.9331 9.0942 90.7916 9.09394C90.7641 9.09401 90.7365 9.09407 90.7081 9.09414C90.6153 9.09433 90.5225 9.0943 90.4297 9.09428C90.3626 9.09437 90.2956 9.09448 90.2286 9.09459C90.044 9.09488 89.8594 9.09498 89.6748 9.09505C89.4963 9.09514 89.3178 9.09539 89.1392 9.09563C88.7738 9.09611 88.4084 9.09646 88.043 9.09675C87.5205 9.09717 86.998 9.09783 86.4755 9.09854C86.2658 9.09882 86.0561 9.0991 85.8463 9.09938C85.823 9.09941 85.7997 9.09944 85.7757 9.09947C85.2208 9.1002 84.6658 9.10085 84.1109 9.10148C84.0866 9.10151 84.0623 9.10153 84.0373 9.10156C83.4713 9.1022 82.9053 9.10281 82.3393 9.10335C82.315 9.10338 82.2907 9.1034 82.2657 9.10342C82.1431 9.10354 82.0205 9.10366 81.898 9.10378C81.8616 9.10381 81.8616 9.10381 81.8246 9.10385C81.7757 9.10389 81.7268 9.10394 81.6779 9.10399C80.8689 9.10476 80.0599 9.10573 79.2509 9.10691C79.1364 9.10708 79.022 9.10724 78.9076 9.1074C78.885 9.10743 78.8625 9.10747 78.8393 9.1075C78.4779 9.10801 78.1164 9.1083 77.755 9.10851C77.3911 9.10873 77.0272 9.10915 76.6633 9.10977C76.4664 9.1101 76.2695 9.11034 76.0726 9.11032C75.892 9.11031 75.7113 9.11057 75.5307 9.11103C75.4657 9.11115 75.4008 9.11117 75.3358 9.11108C73.6888 9.10919 72.2717 9.53481 71.0811 10.7036C70.8432 10.9415 70.6379 11.195 70.4431 11.4687C70.4312 11.4851 70.4193 11.5015 70.407 11.5184C70.0925 11.9518 69.8266 12.4191 69.573 12.8901C69.5597 12.9148 69.5464 12.9395 69.5326 12.9649C69.177 13.6264 68.8724 14.3112 68.5688 14.9976C68.4153 15.3444 68.2596 15.6902 68.103 16.0356C68.0793 16.088 68.0556 16.1404 68.0318 16.1928C68.0203 16.2184 68.0087 16.2439 67.9968 16.2702C67.9854 16.2954 67.974 16.3206 67.9622 16.3465C67.9454 16.3838 67.9454 16.3838 67.9282 16.4218C67.7874 16.7327 67.6473 17.044 67.5084 17.3557C67.47 17.4418 67.4315 17.5278 67.393 17.6138C65.9656 20.4694 65.9656 20.4694 65.9116 23.5105C66.106 23.9565 66.3966 24.2478 66.8466 24.4294C67.3251 24.6053 67.7909 24.6176 68.2945 24.6167C68.3621 24.6167 68.4297 24.6169 68.4973 24.617C68.6825 24.6173 68.8676 24.6172 69.0527 24.6171C69.2321 24.617 69.4114 24.6172 69.5908 24.6174C69.9575 24.6178 70.3243 24.618 70.691 24.618C71.1918 24.618 71.6926 24.6185 72.1935 24.619C72.427 24.6193 72.6605 24.6195 72.894 24.6198C72.9173 24.6198 72.9407 24.6198 72.9648 24.6199C73.5206 24.6204 74.0765 24.6208 74.6323 24.6212C74.6688 24.6212 74.6688 24.6212 74.706 24.6212C75.2734 24.6216 75.8408 24.6219 76.4083 24.6221C76.6052 24.6222 76.8022 24.6223 76.9992 24.6224C77.0235 24.6224 77.0479 24.6224 77.0729 24.6224C77.628 24.6227 78.1832 24.623 78.7383 24.6236C78.7616 24.6236 78.785 24.6236 78.809 24.6237C79.0419 24.6239 79.2749 24.6242 79.5078 24.6245C79.6224 24.6246 79.737 24.6247 79.8516 24.6249C79.8741 24.6249 79.8967 24.6249 79.9199 24.6249C80.2828 24.6253 80.6457 24.6254 81.0086 24.6254C81.3732 24.6253 81.7378 24.6256 82.1023 24.6261C82.2998 24.6264 82.4973 24.6266 82.6948 24.6263C82.8756 24.6261 83.0563 24.6263 83.237 24.6268C83.3025 24.6269 83.3679 24.6269 83.4333 24.6267C83.5222 24.6265 83.6111 24.6268 83.6999 24.6272C83.7254 24.627 83.7508 24.6268 83.7771 24.6266C83.9642 24.6283 84.1563 24.6534 84.3073 24.7723C84.3598 24.9055 84.3549 25.041 84.3101 25.1751C84.2734 25.2585 84.2338 25.3399 84.1931 25.4214C84.1607 25.4887 84.1285 25.5561 84.0964 25.6235C84.0877 25.6417 84.079 25.6599 84.0701 25.6786C83.9651 25.8991 83.8682 26.1231 83.7708 26.347C83.5833 26.7779 83.3932 27.2075 83.2 27.6358C83.1759 27.6892 83.1518 27.7426 83.1278 27.7961C83.0943 27.8707 83.0606 27.9451 83.0269 28.0196C83.0122 28.0523 83.0122 28.0523 82.9972 28.0857C82.8306 28.4524 82.8306 28.4524 82.6923 28.576C82.6752 28.592 82.658 28.608 82.6404 28.6245C82.3997 28.7714 82.1363 28.7697 81.8622 28.7682C81.8207 28.7683 81.7791 28.7684 81.7375 28.7686C81.6235 28.7689 81.5094 28.7687 81.3954 28.7684C81.2712 28.7682 81.1471 28.7685 81.0229 28.7687C80.8054 28.769 80.5878 28.769 80.3703 28.7688C80.0467 28.7685 79.7232 28.7686 79.3996 28.7689C78.8216 28.7694 78.2436 28.7693 77.6655 28.7691C77.1593 28.7689 76.6531 28.7688 76.1469 28.7689C76.1133 28.7689 76.0797 28.7689 76.0451 28.7689C75.9088 28.769 75.7725 28.769 75.6361 28.769C74.3566 28.7693 73.0772 28.769 71.7977 28.7686C70.6622 28.7682 69.5267 28.7682 68.3912 28.7686C67.115 28.7691 65.8387 28.7693 64.5625 28.769C64.4262 28.769 64.29 28.7689 64.1537 28.7689C64.1202 28.7689 64.0866 28.7689 64.052 28.7689C63.5467 28.7688 63.0414 28.7689 62.536 28.7691C61.9606 28.7694 61.3852 28.7693 60.8098 28.7688C60.4882 28.7686 60.1667 28.7686 59.8452 28.7689C59.6297 28.7691 59.4142 28.769 59.1988 28.7686C59.0765 28.7684 58.9541 28.7683 58.8318 28.7686C58.0771 28.7704 57.3224 28.7444 56.5806 28.5905C56.5253 28.5793 56.5253 28.5793 56.4689 28.5679C55.3658 28.3375 54.201 27.8587 53.4196 27.0168C53.3962 26.9935 53.3729 26.9701 53.3489 26.9461C53.3243 26.9216 53.2998 26.897 53.2746 26.8718C53.2586 26.8572 53.2427 26.8426 53.2263 26.8276C52.1857 25.8467 51.7284 24.2567 51.6774 22.8694C51.6734 22.7205 51.6724 22.5717 51.6723 22.4227C51.6722 22.3994 51.6722 22.3761 51.6722 22.3521C51.675 20.2268 52.3409 18.1168 53.2872 16.2297C53.3284 16.1472 53.369 16.0644 53.4092 15.9813C53.5905 15.6093 53.7925 15.2499 53.9996 14.8916C54.0126 14.869 54.0256 14.8464 54.039 14.823C54.6613 13.7428 55.3761 12.7027 56.1892 11.7567C56.2561 11.6782 56.3206 11.5983 56.3849 11.5177C56.5152 11.3572 56.656 11.2074 56.7984 11.0578C56.8833 10.9684 56.9666 10.8787 57.0464 10.7848C57.1964 10.6119 57.3606 10.4522 57.5226 10.2907C57.5792 10.2342 57.6357 10.1775 57.6923 10.1208C58.0136 9.79926 58.0136 9.79926 58.1864 9.65243C58.2606 9.58939 58.331 9.52265 58.4023 9.45631C58.5369 9.33188 58.6755 9.21404 58.8184 9.09904C58.8925 9.03871 58.9654 8.97723 59.038 8.91504C59.2382 8.74375 59.4438 8.58078 59.6547 8.42291C59.6755 8.40738 59.6962 8.39185 59.7175 8.37586C60.5635 7.74369 61.4458 7.17452 62.3808 6.68245C62.4113 6.66637 62.4418 6.65028 62.4732 6.63371C64.3667 5.64255 66.5516 4.99319 68.698 4.9962Z" fill="#171717"/>
<path d="M115.32 4.98883C115.434 4.98906 115.549 4.98877 115.664 4.98855C115.864 4.98824 116.064 4.98824 116.264 4.98847C116.561 4.9888 116.859 4.98863 117.156 4.98836C117.687 4.98791 118.218 4.98794 118.749 4.98819C119.214 4.98841 119.678 4.98847 120.142 4.98837C120.173 4.98836 120.204 4.98835 120.236 4.98835C120.361 4.98832 120.487 4.98829 120.612 4.98826C121.786 4.988 122.959 4.98824 124.133 4.98871C125.176 4.98912 126.218 4.98908 127.261 4.98867C128.434 4.9882 129.607 4.98801 130.78 4.98828C130.905 4.98831 131.03 4.98834 131.155 4.98837C131.201 4.98838 131.201 4.98838 131.248 4.98839C131.712 4.98849 132.177 4.98837 132.641 4.98815C133.169 4.9879 133.696 4.98796 134.224 4.98844C134.519 4.98869 134.814 4.98871 135.11 4.98838C135.307 4.98818 135.504 4.9883 135.701 4.98868C135.813 4.98889 135.925 4.98896 136.038 4.98865C136.159 4.98832 136.28 4.98865 136.4 4.98906C136.435 4.98886 136.471 4.98865 136.507 4.98844C136.807 4.99047 136.807 4.99047 136.942 5.08703C137.027 5.21401 137.022 5.31502 137 5.46413C136.958 5.586 136.906 5.7013 136.85 5.81709C136.821 5.87563 136.794 5.93445 136.767 5.99338C136.738 6.0553 136.709 6.1172 136.68 6.17901C136.591 6.36792 136.507 6.55865 136.424 6.75011C136.383 6.8451 136.342 6.93997 136.3 7.03485C136.291 7.05468 136.283 7.0745 136.274 7.09492C136.161 7.35402 136.047 7.61281 135.933 7.87149C135.909 7.92668 135.884 7.98187 135.86 8.03708C135.477 8.90803 135.477 8.90803 135.157 9.04815C135.021 9.09802 134.898 9.10231 134.754 9.10125C134.728 9.1014 134.701 9.10155 134.673 9.1017C134.584 9.1021 134.494 9.10187 134.404 9.10165C134.339 9.10181 134.275 9.10201 134.21 9.10224C134.031 9.10276 133.853 9.10274 133.675 9.10264C133.502 9.10262 133.329 9.10302 133.157 9.1034C132.804 9.10416 132.451 9.10453 132.098 9.10466C131.748 9.10479 131.399 9.10511 131.049 9.10566C131.017 9.10571 131.017 9.10571 130.983 9.10576C130.873 9.10594 130.763 9.10612 130.652 9.1063C129.871 9.10756 129.089 9.10842 128.307 9.10905C127.548 9.10965 126.788 9.11045 126.029 9.11148C125.994 9.11153 125.994 9.11153 125.958 9.11158C125.723 9.1119 125.488 9.11222 125.253 9.11255C124.774 9.11322 124.295 9.11386 123.816 9.11448C123.794 9.11451 123.772 9.11454 123.749 9.11457C122.279 9.11649 120.809 9.11784 119.338 9.1191C119.399 9.17965 119.459 9.24015 119.519 9.30062C119.536 9.31766 119.553 9.33471 119.57 9.35227C119.675 9.45771 119.783 9.55817 119.897 9.6546C119.968 9.71684 120.033 9.78428 120.099 9.85165C120.152 9.90418 120.208 9.95316 120.265 10.002C120.367 10.0902 120.462 10.184 120.556 10.2802C120.631 10.354 120.711 10.4221 120.79 10.4907C120.863 10.555 120.93 10.6238 120.998 10.6929C121.051 10.7454 121.107 10.7944 121.164 10.8432C121.266 10.9314 121.361 11.0252 121.455 11.1214C121.53 11.1953 121.61 11.2633 121.689 11.3319C121.762 11.3962 121.829 11.465 121.897 11.5341C121.95 11.5866 122.006 11.6356 122.063 11.6845C122.165 11.7726 122.26 11.8664 122.354 11.9626C122.429 12.0365 122.509 12.1046 122.588 12.1732C122.661 12.2375 122.728 12.3062 122.796 12.3753C122.849 12.4278 122.905 12.4768 122.962 12.5257C123.064 12.6138 123.159 12.7076 123.253 12.8039C123.328 12.8777 123.408 12.9458 123.488 13.0144C123.542 13.063 123.594 13.1134 123.645 13.1657C123.714 13.2357 123.785 13.3012 123.859 13.3651C123.993 13.4803 124.116 13.6052 124.24 13.7313C124.165 13.8173 124.08 13.8605 123.98 13.9118C123.962 13.9206 123.945 13.9293 123.928 13.9383C123.891 13.957 123.855 13.9757 123.818 13.9942C123.76 14.0235 123.703 14.0531 123.645 14.0826C123.569 14.1219 123.492 14.1611 123.415 14.2003C123.288 14.2655 123.161 14.3317 123.034 14.3985C123.013 14.4096 122.992 14.4207 122.97 14.4321C122.804 14.52 122.639 14.609 122.473 14.698C122.438 14.7166 122.404 14.7352 122.369 14.7538C122.352 14.763 122.335 14.7722 122.317 14.7817C121.84 15.0378 121.361 15.2891 120.876 15.5298C120.629 15.1487 120.406 14.7551 120.182 14.3606C120.095 14.2061 120.006 14.0519 119.918 13.8978C119.87 13.8133 119.822 13.7288 119.773 13.6443C119.754 13.6104 119.735 13.5766 119.715 13.5428C119.599 13.3397 119.599 13.3397 119.57 13.2889C119.551 13.2551 119.532 13.2212 119.512 13.1874C119.464 13.103 119.416 13.0186 119.368 12.9342C119.279 12.7792 119.191 12.6242 119.102 12.4693C119.061 12.3985 119.021 12.3277 118.98 12.257C118.961 12.2223 118.941 12.1877 118.921 12.1531C118.814 11.966 118.708 11.7785 118.604 11.5893C118.44 11.2288 118.44 11.2288 118.169 10.9781C118.067 10.9748 118.009 11.0056 117.919 11.0535C117.889 11.0697 117.859 11.0858 117.827 11.1024C117.659 11.187 117.659 11.187 117.54 11.3237C117.525 11.4741 117.561 11.5499 117.642 11.6754C117.666 11.7138 117.69 11.7523 117.714 11.7909C117.728 11.8129 117.741 11.8349 117.756 11.8575C117.838 11.9933 117.916 12.1318 117.995 12.2701C118.152 12.5473 118.311 12.8236 118.472 13.0986C118.627 13.3622 118.777 13.6281 118.925 13.8951C119.057 14.132 119.193 14.3663 119.331 14.6002C119.473 14.8433 119.611 15.0885 119.748 15.3348C119.86 15.5367 119.975 15.7367 120.092 15.9359C120 16.011 119.902 16.0629 119.795 16.1154C119.764 16.1307 119.733 16.1461 119.701 16.1619C119.665 16.1793 119.665 16.1793 119.628 16.197C119.618 16.1786 119.608 16.1603 119.598 16.1414C119.408 15.8003 119.217 15.4603 119.019 15.1237C118.864 14.8583 118.712 14.5907 118.563 14.3218C118.447 14.1138 118.328 13.9077 118.207 13.7023C118.068 13.465 117.932 13.2264 117.798 12.9862C117.462 12.2917 117.462 12.2917 117.018 11.6718C116.805 11.6677 116.665 11.7671 116.492 11.8803C116.409 11.9328 116.409 11.9328 116.322 11.9618C116.314 12.0947 116.331 12.172 116.397 12.287C116.413 12.3156 116.429 12.3442 116.446 12.3736C116.473 12.4193 116.473 12.4193 116.5 12.4659C116.518 12.4979 116.537 12.53 116.556 12.563C116.613 12.6626 116.671 12.7619 116.728 12.8611C116.745 12.8904 116.762 12.9197 116.78 12.9499C116.863 13.0924 116.946 13.2348 117.029 13.377C117.142 13.5693 117.252 13.7626 117.363 13.9561C117.372 13.9731 117.382 13.99 117.392 14.0075C117.441 14.0937 117.49 14.1799 117.539 14.2661C117.627 14.4191 117.714 14.5721 117.802 14.725C117.85 14.8092 117.898 14.8934 117.946 14.9776C117.955 14.9943 117.965 15.011 117.975 15.0282C118.034 15.1324 118.094 15.2365 118.153 15.3407C118.193 15.4112 118.234 15.4817 118.274 15.5521C118.303 15.6035 118.332 15.6548 118.362 15.7061C118.449 15.8593 118.537 16.0123 118.626 16.1643C118.642 16.19 118.657 16.2157 118.672 16.2421C118.7 16.2891 118.728 16.336 118.756 16.3828C118.845 16.5354 118.845 16.5354 118.845 16.6321C118.616 16.7469 118.616 16.7469 118.381 16.8641C118.169 16.5039 117.96 16.1425 117.758 15.7763C117.605 15.4989 117.448 15.2242 117.287 14.9511C117.161 14.7368 117.04 14.5201 116.921 14.3024C116.717 13.9331 116.503 13.5706 116.287 13.2087C116.227 13.1076 116.168 13.0059 116.109 12.9041C116.055 12.8118 116 12.7204 115.945 12.629C115.922 12.5882 115.922 12.5882 115.898 12.5466C115.86 12.4854 115.829 12.4406 115.771 12.397C115.55 12.3653 115.389 12.4904 115.209 12.6044C115.052 12.7033 114.889 12.7928 114.727 12.8828C114.664 12.9181 114.601 12.9534 114.538 12.9887C114.506 13.0062 114.475 13.0237 114.442 13.0417C113.934 13.3258 113.428 13.6153 112.922 13.9052C112.872 13.9341 112.821 13.9629 112.771 13.9918C112.442 14.1806 112.113 14.3704 111.787 14.5653C111.764 14.5795 111.74 14.5937 111.715 14.6083C111.693 14.6215 111.671 14.6347 111.649 14.6482C111.63 14.6596 111.611 14.6709 111.592 14.6826C111.535 14.7179 111.535 14.7179 111.476 14.7654C111.421 14.8046 111.421 14.8046 111.363 14.8046C111.373 14.8525 111.382 14.9003 111.392 14.9496C111.423 14.9524 111.423 14.9524 111.454 14.9553C111.856 14.9935 112.232 15.0361 112.61 15.1817C112.64 15.1924 112.67 15.2031 112.7 15.2141C113.102 15.368 113.441 15.6064 113.756 15.8959C113.793 15.9304 113.832 15.9642 113.87 15.9978C114.419 16.5014 114.788 17.3447 114.843 18.0825C114.847 18.2082 114.846 18.3338 114.845 18.4596C114.845 18.4931 114.845 18.5266 114.845 18.5612C114.844 18.6433 114.844 18.7255 114.843 18.8076C114.824 18.818 114.805 18.8283 114.785 18.8389C114.414 19.0369 114.045 19.2369 113.68 19.4448C113.456 19.5721 113.231 19.6969 113.005 19.8211C112.651 20.0162 112.298 20.2132 111.945 20.4113C111.855 20.4617 111.765 20.512 111.675 20.5624C111.645 20.5792 111.615 20.596 111.584 20.6133C111.524 20.6469 111.464 20.6805 111.404 20.7141C111.263 20.7934 111.121 20.8729 110.98 20.953C110.929 20.9816 110.879 21.0101 110.828 21.0387C110.764 21.0747 110.701 21.1108 110.637 21.147C110.609 21.1631 110.58 21.1793 110.551 21.1959C110.525 21.2102 110.5 21.2245 110.474 21.2392C110.411 21.271 110.361 21.2951 110.29 21.3023C110.228 21.2513 110.177 21.203 110.123 21.1446C110.109 21.1292 110.094 21.1139 110.079 21.0981C110.043 21.0601 110.007 21.0217 109.971 20.9832C110.032 20.9172 110.092 20.8729 110.17 20.8293C110.192 20.8172 110.213 20.805 110.235 20.7925C110.28 20.7675 110.325 20.7425 110.37 20.7177C110.531 20.6258 110.64 20.551 110.696 20.3656C110.696 20.2243 110.65 20.1381 110.582 20.0169C110.464 19.7987 110.464 19.7987 110.464 19.7359C110.483 19.7257 110.501 19.7155 110.52 19.7051C110.861 19.5154 111.201 19.3244 111.537 19.1267C111.803 18.9709 112.07 18.8195 112.339 18.6698C112.574 18.5384 112.807 18.403 113.04 18.2664C113.299 18.1142 113.562 17.968 113.826 17.8231C113.994 17.7304 114.16 17.6352 114.321 17.5313C114.187 17.1289 114.019 16.7497 113.719 16.4411C113.683 16.4 113.683 16.4 113.683 16.342C113.224 16.6009 112.766 16.8619 112.308 17.1238C112.206 17.1824 112.103 17.241 112.001 17.2996C111.984 17.3091 111.967 17.3187 111.95 17.3285C111.866 17.3767 111.781 17.4249 111.697 17.4731C111.527 17.5705 111.356 17.6679 111.186 17.7654C110.984 17.8811 110.782 17.9964 110.58 18.1115C110.563 18.1212 110.546 18.131 110.528 18.141C110.41 18.2082 110.292 18.275 110.174 18.3417C110.128 18.3677 110.128 18.3677 110.082 18.3942C110.054 18.4101 110.026 18.4259 109.997 18.4422C109.972 18.4561 109.947 18.47 109.922 18.4844C109.861 18.5149 109.806 18.5332 109.739 18.5466C109.724 18.5183 109.708 18.49 109.693 18.4608C109.672 18.4235 109.651 18.3862 109.63 18.349C109.62 18.3303 109.61 18.3117 109.6 18.2925C109.529 18.1658 109.471 18.0849 109.335 18.0312C108.881 17.9796 108.196 18.5269 107.835 18.7732C107.767 18.8076 107.767 18.8076 107.712 18.8012C107.638 18.7739 107.599 18.7385 107.542 18.6845C107.522 18.6651 107.501 18.6457 107.48 18.6258C107.459 18.605 107.438 18.5843 107.415 18.5629C107.393 18.5418 107.371 18.5208 107.349 18.4991C107.207 18.363 107.067 18.2248 106.929 18.0848C106.873 18.0295 106.816 17.9777 106.756 17.9265C106.653 17.8384 106.557 17.7438 106.462 17.6473C106.368 17.5521 106.274 17.4586 106.172 17.3718C106.055 17.2721 105.948 17.1635 105.84 17.0534C105.743 16.9544 105.641 16.8625 105.536 16.7717C105.082 16.375 104.659 15.9468 104.296 15.4645C104.258 15.4136 104.219 15.3633 104.18 15.313C103.613 14.5761 103.237 13.7218 103.098 12.8031C103.092 12.7666 103.092 12.7666 103.086 12.7293C102.94 11.5782 103.308 10.4033 103.997 9.48464C104.429 8.92679 104.913 8.44152 105.476 8.01681C105.493 8.00388 105.51 7.99096 105.527 7.97764C107.625 6.37724 110.28 5.4972 113.843 5.04013C113.866 5.03825 113.889 5.03637 113.913 5.03444C114.382 4.99674 114.849 4.98749 115.32 4.98883Z" fill="#2791FF"/>
<path d="M10.0343 8.88703C10.0704 8.99533 10.0551 9.06025 10.0375 9.17303C10.0312 9.21433 10.025 9.25564 10.0187 9.29695C10.0153 9.31876 10.012 9.34056 10.0085 9.36303C9.83857 10.4686 9.76208 11.5824 9.76573 12.7006C9.76606 12.8028 9.76586 12.9051 9.76553 13.0073C9.76361 13.7054 9.78619 14.4039 9.88023 15.0965C9.88748 15.1509 9.88748 15.1509 9.89487 15.2064C10.2235 17.6009 10.9966 19.9501 12.9932 24.4954C13.0347 24.5776 13.0754 24.6601 13.1158 24.7429C13.3017 25.1227 13.5052 25.4908 13.7174 25.8565C13.7314 25.8807 13.7453 25.9049 13.7597 25.9299C14.1049 26.526 14.4872 27.1082 14.9064 27.655C14.919 27.6715 14.9316 27.688 14.9445 27.705C15.0975 27.9055 15.2565 28.1003 15.4212 28.2913C15.4362 28.3088 15.4513 28.3263 15.4668 28.3443C15.5622 28.4538 15.662 28.5564 15.7674 28.6564C15.8055 28.6992 15.8055 28.6992 15.8055 28.7573C14.4559 28.7588 13.1064 28.7601 11.7568 28.7609C11.7368 28.761 11.7169 28.761 11.6963 28.761C11.2623 28.7612 10.8284 28.7615 10.3945 28.7617C10.1817 28.7618 9.96887 28.7619 9.75607 28.762C9.73489 28.7621 9.71372 28.7621 9.6919 28.7621C9.00529 28.7624 8.31868 28.7631 7.63208 28.7639C6.9266 28.7647 6.22113 28.7653 5.51566 28.7654C5.41606 28.7655 5.31646 28.7655 5.21686 28.7655C5.18745 28.7655 5.18745 28.7655 5.15745 28.7655C4.84166 28.7656 4.52587 28.766 4.21008 28.7666C3.89275 28.7671 3.57541 28.7673 3.25807 28.7671C3.08608 28.7671 2.91408 28.7672 2.74209 28.7676C2.58473 28.7681 2.42739 28.7681 2.27003 28.7678C2.213 28.7677 2.15598 28.7679 2.09895 28.7681C2.0216 28.7685 1.94428 28.7683 1.86694 28.768C1.84464 28.7682 1.82235 28.7684 1.79938 28.7687C1.66145 28.7674 1.56722 28.7432 1.45005 28.6702C1.38002 28.5889 1.36208 28.5478 1.36667 28.4402C1.39399 28.2767 1.46869 28.1283 1.53524 27.9777C1.55051 27.9426 1.56577 27.9075 1.58151 27.8714C1.62467 27.7723 1.66816 27.6734 1.7117 27.5744C1.75095 27.4852 1.79 27.3958 1.82905 27.3064C2.24096 26.3641 2.65696 25.4235 3.07523 24.4839C3.21848 24.1621 3.36029 23.8396 3.50154 23.5169C3.69604 23.0725 3.89305 22.6294 4.09273 22.1874C4.25824 21.8208 4.42104 21.4532 4.58214 21.0847C4.75276 20.6946 4.92535 20.3053 5.10053 19.9172C5.28545 19.5074 5.46914 19.0971 5.65154 18.6862C5.66359 18.6591 5.67563 18.6319 5.68803 18.604C5.77379 18.4108 5.85949 18.2176 5.94518 18.0244C6.04302 17.8038 6.14088 17.5833 6.23881 17.3627C6.25082 17.3356 6.26284 17.3086 6.27521 17.2807C6.45763 16.87 6.64146 16.4599 6.82612 16.0501C6.97683 15.7157 7.12678 15.381 7.27559 15.0457C7.28956 15.0143 7.28956 15.0143 7.3038 14.9822C7.3624 14.8501 7.42096 14.7181 7.4795 14.586C7.58548 14.347 7.69151 14.108 7.79761 13.8691C7.80982 13.8416 7.82204 13.8141 7.83463 13.7857C8.0085 13.3942 8.18348 13.0032 8.3595 12.6127C8.5693 12.1472 8.77734 11.6809 8.98431 11.2142C9.06378 11.035 9.14335 10.8558 9.22295 10.6767C9.23542 10.6486 9.24789 10.6206 9.26073 10.5916C9.32347 10.4505 9.38622 10.3093 9.44898 10.1681C9.55634 9.9266 9.66364 9.68505 9.77046 9.44328C9.78701 9.40587 9.80355 9.36846 9.8201 9.33105C9.84963 9.26427 9.87911 9.19747 9.90852 9.13064C9.92113 9.10215 9.93374 9.07366 9.94673 9.04431C9.95746 9.01996 9.9682 8.9956 9.97926 8.97051C10.0053 8.91604 10.0053 8.91604 10.0343 8.88703Z" fill="#171717"/>
<path d="M11.8904 5.00001C14.2925 5.00001 16.6946 5.00001 19.1696 5.00001C19.0553 5.15243 18.9419 5.29693 18.8161 5.43875C18.636 5.64458 18.466 5.85636 18.2995 6.07329C18.2819 6.09611 18.2643 6.11894 18.2462 6.14245C17.4773 7.139 16.7835 8.18677 16.1825 9.29314C16.1587 9.33687 16.1587 9.33687 16.1344 9.38149C15.6957 10.194 15.3358 11.036 15.0224 11.9038C15.0158 11.9223 15.0091 11.9408 15.0022 11.9598C14.5602 13.1864 14.2711 14.4669 14.1234 15.7618C14.1191 15.7977 14.1147 15.8336 14.1103 15.8706C13.9252 17.4522 13.9708 19.0986 14.3116 20.6542C14.3267 20.7233 14.3414 20.7924 14.3561 20.8616C14.7227 22.5839 15.2504 24.2465 15.8925 25.8855C15.9018 25.9093 15.9111 25.9331 15.9207 25.9577C16.0009 26.1624 16.0815 26.3669 16.1627 26.5713C16.2959 26.907 16.4275 27.2434 16.5579 27.5803C16.5791 27.6351 16.6003 27.6898 16.6216 27.7446C16.7518 28.0802 16.877 28.417 16.9945 28.7573C16.9014 28.7232 16.8283 28.6894 16.7534 28.6243C16.7276 28.602 16.7276 28.602 16.7012 28.5792C16.6832 28.5632 16.6651 28.5472 16.6465 28.5306C16.6275 28.5139 16.6085 28.4972 16.5889 28.48C16.3211 28.2419 16.0674 27.9938 15.8448 27.7123C15.7943 27.6485 15.7432 27.5857 15.6909 27.5233C14.9526 26.6375 14.3725 25.6247 13.8334 24.6092C13.819 24.5821 13.8045 24.555 13.7896 24.5271C13.1456 23.3186 12.6007 22.0628 12.1224 20.7802C12.1144 20.7587 12.1064 20.7373 12.0981 20.7152C11.2641 18.478 10.5268 16.0772 10.5273 10.9176C10.5301 10.8853 10.5301 10.8853 10.5329 10.8523C10.6798 9.14554 11.0146 7.47023 11.5677 5.84848C11.5771 5.82087 11.5866 5.79326 11.5963 5.76481C11.6233 5.68582 11.6506 5.60691 11.6781 5.52804C11.6901 5.49329 11.6901 5.49329 11.7023 5.45785C11.7577 5.30025 11.822 5.15377 11.8904 5.00001Z" fill="#2791FF"/>
<path d="M-0.000335693 42.8986V35.4531H3.26787C3.88483 35.4531 4.39757 35.5379 4.8061 35.7075C5.2174 35.8748 5.52449 36.1038 5.72737 36.3946C5.93302 36.6855 6.03584 37.0151 6.03584 37.3835C6.03584 37.6865 5.96915 37.9458 5.83575 38.1615C5.70235 38.3748 5.5231 38.5481 5.298 38.6814C5.07289 38.8147 4.82138 38.9104 4.54347 38.9686V39.0413C4.84639 39.0558 5.13681 39.137 5.41472 39.2849C5.69541 39.4303 5.92468 39.6363 6.10254 39.9029C6.2804 40.1695 6.36933 40.4919 6.36933 40.8699C6.36933 41.2553 6.26234 41.6019 6.04835 41.9097C5.83436 42.2151 5.51199 42.4562 5.08123 42.6332C4.65047 42.8101 4.10855 42.8986 3.45546 42.8986H-0.000335693ZM1.54623 41.7716H3.20951C3.77089 41.7716 4.17524 41.6782 4.42258 41.4916C4.6727 41.3026 4.79776 41.0602 4.79776 40.7645C4.79776 40.544 4.73523 40.3452 4.61017 40.1683C4.48511 39.9889 4.30725 39.8484 4.07659 39.7466C3.84592 39.6424 3.57079 39.5903 3.2512 39.5903H1.54623V41.7716ZM1.54623 38.6196H3.07611C3.34291 38.6196 3.5833 38.5772 3.79729 38.4923C4.01128 38.4051 4.17941 38.2827 4.30169 38.1251C4.42675 37.9652 4.48928 37.7761 4.48928 37.558C4.48928 37.2696 4.37256 37.0321 4.13912 36.8454C3.90845 36.6588 3.56523 36.5655 3.10946 36.5655H1.54623V38.6196Z" fill="#2791FF"/>
<path d="M7.71476 42.8986V35.4531H13.2674V36.5837H9.26132V38.605H12.9797V39.7357H9.26132V41.7679H13.3007V42.8986H7.71476Z" fill="#2791FF"/>
<path d="M14.8452 42.8986V35.4531H16.3918V41.7679H20.1519V42.8986H14.8452Z" fill="#2791FF"/>
<path d="M26.8811 37.8307C26.8116 37.6344 26.7157 37.4586 26.5935 37.3035C26.474 37.146 26.3294 37.0115 26.1599 36.9C25.9932 36.7885 25.8014 36.7049 25.5846 36.6491C25.3679 36.591 25.1317 36.5619 24.876 36.5619C24.4174 36.5619 24.0089 36.6625 23.6504 36.8636C23.2919 37.0648 23.0098 37.3605 22.8042 37.7507C22.6013 38.1385 22.4999 38.6111 22.4999 39.1685C22.4999 39.7308 22.6013 40.2071 22.8042 40.5973C23.007 40.9875 23.2891 41.2844 23.6504 41.488C24.0117 41.6891 24.4313 41.7897 24.9093 41.7897C25.3429 41.7897 25.718 41.717 26.0349 41.5716C26.3545 41.4262 26.6004 41.2202 26.7727 40.9536C26.945 40.6845 27.0312 40.3695 27.0312 40.0083L27.3813 40.0556H25.0636V39.0013H28.5277V39.8956C28.5277 40.5331 28.3721 41.0844 28.0608 41.5498C27.7496 42.0151 27.3216 42.3738 26.7769 42.6259C26.2322 42.8755 25.6069 43.0004 24.901 43.0004C24.1145 43.0004 23.4239 42.8464 22.8292 42.5386C22.2372 42.2284 21.7745 41.7885 21.441 41.219C21.1103 40.647 20.945 39.9683 20.945 39.1831C20.945 38.582 21.0422 38.0452 21.2368 37.5725C21.4341 37.0999 21.7092 36.6988 22.0621 36.3692C22.4151 36.0372 22.8292 35.7851 23.3044 35.613C23.7796 35.4385 24.2965 35.3513 24.8551 35.3513C25.3276 35.3513 25.7681 35.4118 26.1766 35.533C26.5851 35.6518 26.9478 35.8214 27.2646 36.042C27.5842 36.2626 27.8468 36.5243 28.0525 36.8273C28.2581 37.1302 28.3929 37.4647 28.4568 37.8307H26.8811Z" fill="#2791FF"/>
<path d="M31.5698 35.4531V42.8986H30.0232V35.4531H31.5698Z" fill="#2791FF"/>
<path d="M34.3409 42.8986H32.6901L35.6957 35.4531H37.6049L40.6146 42.8986H38.9639L36.6836 36.98H36.6169L34.3409 42.8986ZM34.395 39.9792H38.8972V41.0626H34.395V39.9792Z" fill="#2791FF"/>
<path d="M48.7549 35.4531V42.8986H47.3793L43.3566 37.827H43.2857V42.8986H41.7391V35.4531H43.1231L47.1417 40.5282H47.2167V35.4531H48.7549Z" fill="#2791FF"/>
<path d="M60.6595 37.9652H59.1004C59.056 37.7422 58.974 37.5447 58.8545 37.3726C58.735 37.1981 58.5863 37.0502 58.4085 36.9291C58.2306 36.8079 58.0277 36.717 57.7998 36.6564C57.5747 36.5934 57.3316 36.5619 57.0703 36.5619C56.6062 36.5619 56.1949 36.6637 55.8364 36.8673C55.4779 37.0684 55.1972 37.3641 54.9943 37.7543C54.7915 38.1421 54.69 38.6159 54.69 39.1758C54.69 39.7454 54.7915 40.2253 54.9943 40.6155C55.2 41.0032 55.4807 41.2965 55.8364 41.4953C56.1949 41.6916 56.6048 41.7897 57.0662 41.7897C57.3218 41.7897 57.5608 41.7606 57.7832 41.7025C58.0083 41.6419 58.2097 41.5534 58.3876 41.4371C58.5682 41.3207 58.7197 41.1778 58.842 41.0081C58.967 40.8384 59.0532 40.6445 59.1004 40.4264L60.6595 40.4337C60.6012 40.7875 60.4747 41.1196 60.2802 41.4298C60.0884 41.74 59.8369 42.0139 59.5256 42.2514C59.2144 42.4865 58.8503 42.6707 58.4335 42.804C58.0166 42.9349 57.5539 43.0004 57.0453 43.0004C56.295 43.0004 55.6252 42.8489 55.036 42.5459C54.4469 42.243 53.9828 41.8055 53.6437 41.2335C53.3047 40.6615 53.1351 39.9756 53.1351 39.1758C53.1351 38.3736 53.306 37.6877 53.6479 37.1181C53.9897 36.5461 54.4552 36.1087 55.0444 35.8057C55.6335 35.5027 56.3005 35.3513 57.0453 35.3513C57.5205 35.3513 57.9624 35.4094 58.3709 35.5258C58.7795 35.6421 59.1435 35.813 59.4631 36.0384C59.7827 36.2613 60.0453 36.5352 60.251 36.86C60.4594 37.1823 60.5956 37.5507 60.6595 37.9652Z" fill="#2791FF"/>
<path d="M63.069 42.8986H61.4182L64.4238 35.4531H66.333L69.3428 42.8986H67.692L65.4118 36.98H65.3451L63.069 42.8986ZM63.1232 39.9792H67.6253V41.0626H63.1232V39.9792Z" fill="#2791FF"/>
<path d="M70.4673 42.8986V35.4531H73.6688C74.3246 35.4531 74.8749 35.5524 75.3195 35.7512C75.767 35.9499 76.1046 36.2286 76.3325 36.5873C76.5632 36.9436 76.6785 37.3593 76.6785 37.8343C76.6785 38.3118 76.5618 38.7262 76.3284 39.0776C76.0977 39.4267 75.7573 39.6969 75.307 39.8884C74.8568 40.0774 74.3038 40.1719 73.6479 40.1719H71.3677V39.0522H73.4395C73.823 39.0522 74.137 39.0061 74.3816 38.914C74.6262 38.8195 74.8068 38.6826 74.9235 38.5032C75.043 38.3215 75.1028 38.0985 75.1028 37.8343C75.1028 37.5701 75.043 37.3447 74.9235 37.1581C74.804 36.9691 74.622 36.8261 74.3774 36.7291C74.1329 36.6297 73.8175 36.5801 73.4312 36.5801H72.0138V42.8986H70.4673ZM74.8777 39.5248L76.9912 42.8986H75.2654L73.1894 39.5248H74.8777Z" fill="#2791FF"/>
<path d="M85.6536 37.4998C85.6147 37.1823 85.4507 36.9351 85.1617 36.7582C84.8754 36.5813 84.503 36.4928 84.0445 36.4928C83.7221 36.4928 83.4456 36.5352 83.2149 36.62C82.9843 36.7049 82.8078 36.82 82.6855 36.9654C82.5632 37.1108 82.5007 37.2769 82.4979 37.4635C82.4979 37.6186 82.5382 37.7531 82.6188 37.867C82.7022 37.9809 82.8148 38.0779 82.9565 38.1579C83.0982 38.2354 83.2552 38.3009 83.4275 38.3542C83.5998 38.4075 83.7735 38.4523 83.9486 38.4887L84.749 38.6632C85.0714 38.7286 85.3812 38.8171 85.6786 38.9286C85.9787 39.0401 86.2469 39.1807 86.4831 39.3503C86.7221 39.52 86.9111 39.7248 87.0501 39.9647C87.189 40.2047 87.2585 40.4858 87.2585 40.8081C87.2585 41.2444 87.1307 41.6286 86.875 41.9606C86.6193 42.2902 86.2497 42.5483 85.7661 42.735C85.2854 42.9192 84.7031 43.0113 84.0195 43.0113C83.3553 43.0113 82.7786 42.9216 82.2895 42.7422C81.8032 42.5629 81.4224 42.3011 81.1473 41.957C80.8749 41.6128 80.7277 41.1935 80.7054 40.6991H82.227C82.2492 40.9584 82.3409 41.1741 82.5021 41.3462C82.6633 41.5183 82.8731 41.6467 83.1316 41.7316C83.3928 41.8164 83.6846 41.8588 84.007 41.8588C84.3432 41.8588 84.6378 41.8152 84.8907 41.7279C85.1464 41.6382 85.3465 41.5146 85.491 41.3571C85.6355 41.1971 85.7092 41.0105 85.712 40.7972C85.7092 40.6033 85.6439 40.4434 85.516 40.3174C85.3882 40.1889 85.2089 40.0823 84.9783 39.9974C84.7504 39.9102 84.4836 39.8326 84.1779 39.7648L83.2066 39.5466C82.5035 39.3891 81.9477 39.1504 81.5391 38.8304C81.1334 38.5081 80.9305 38.0803 80.9305 37.5471C80.9305 37.1084 81.0667 36.7243 81.3391 36.3946C81.6142 36.065 81.988 35.8093 82.4604 35.6276C82.9329 35.4434 83.4678 35.3513 84.0653 35.3513C84.6712 35.3513 85.202 35.4434 85.6578 35.6276C86.1163 35.8093 86.4762 36.0626 86.7374 36.3874C86.9987 36.7097 87.1335 37.0805 87.1418 37.4998H85.6536Z" fill="#2791FF"/>
<path d="M88.6373 42.8986V35.4531H94.1899V36.5837H90.1838V38.605H93.9023V39.7357H90.1838V41.7679H94.2233V42.8986H88.6373Z" fill="#2791FF"/>
<path d="M95.7677 42.8986V35.4531H98.9692C99.6251 35.4531 100.175 35.5524 100.62 35.7512C101.067 35.9499 101.405 36.2286 101.633 36.5873C101.864 36.9436 101.979 37.3593 101.979 37.8343C101.979 38.3118 101.862 38.7262 101.629 39.0776C101.398 39.4267 101.058 39.6969 100.608 39.8884C100.157 40.0774 99.6043 40.1719 98.9484 40.1719H96.6682V39.0522H98.74C99.1235 39.0522 99.4375 39.0061 99.6821 38.914C99.9266 38.8195 100.107 38.6826 100.224 38.5032C100.343 38.3215 100.403 38.0985 100.403 37.8343C100.403 37.5701 100.343 37.3447 100.224 37.1581C100.104 36.9691 99.9225 36.8261 99.6779 36.7291C99.4333 36.6297 99.1179 36.5801 98.7316 36.5801H97.3143V42.8986H95.7677ZM100.178 39.5248L102.292 42.8986H100.566L98.4898 39.5248H100.178Z" fill="#2791FF"/>
<path d="M104.327 35.4531L106.549 41.3135H106.636L108.854 35.4531H110.555L107.545 42.8986H105.636L102.63 35.4531H104.327Z" fill="#2791FF"/>
<path d="M113.226 35.4531V42.8986H111.679V35.4531H113.226Z" fill="#2791FF"/>
<path d="M122.208 37.9652H120.649C120.605 37.7422 120.523 37.5447 120.403 37.3726C120.284 37.1981 120.135 37.0502 119.957 36.9291C119.779 36.8079 119.577 36.717 119.349 36.6564C119.124 36.5934 118.88 36.5619 118.619 36.5619C118.155 36.5619 117.744 36.6637 117.385 36.8673C117.027 37.0684 116.746 37.3641 116.543 37.7543C116.34 38.1421 116.239 38.6159 116.239 39.1758C116.239 39.7454 116.34 40.2253 116.543 40.6155C116.749 41.0032 117.029 41.2965 117.385 41.4953C117.744 41.6916 118.154 41.7897 118.615 41.7897C118.871 41.7897 119.11 41.7606 119.332 41.7025C119.557 41.6419 119.759 41.5534 119.936 41.4371C120.117 41.3207 120.269 41.1778 120.391 41.0081C120.516 40.8384 120.602 40.6445 120.649 40.4264L122.208 40.4337C122.15 40.7875 122.024 41.1196 121.829 41.4298C121.637 41.74 121.386 42.0139 121.074 42.2514C120.763 42.4865 120.399 42.6707 119.982 42.804C119.565 42.9349 119.103 43.0004 118.594 43.0004C117.844 43.0004 117.174 42.8489 116.585 42.5459C115.996 42.243 115.532 41.8055 115.193 41.2335C114.853 40.6615 114.684 39.9756 114.684 39.1758C114.684 38.3736 114.855 37.6877 115.197 37.1181C115.539 36.5461 116.004 36.1087 116.593 35.8057C117.182 35.5027 117.849 35.3513 118.594 35.3513C119.069 35.3513 119.511 35.4094 119.92 35.5258C120.328 35.6421 120.692 35.813 121.012 36.0384C121.332 36.2613 121.594 36.5352 121.8 36.86C122.008 37.1823 122.144 37.5507 122.208 37.9652Z" fill="#2791FF"/>
<path d="M123.625 42.8986V35.4531H129.177V36.5837H125.171V38.605H128.89V39.7357H125.171V41.7679H129.211V42.8986H123.625Z" fill="#2791FF"/>
<path d="M135.395 37.4998C135.356 37.1823 135.192 36.9351 134.903 36.7582C134.617 36.5813 134.244 36.4928 133.786 36.4928C133.463 36.4928 133.187 36.5352 132.956 36.62C132.725 36.7049 132.549 36.82 132.427 36.9654C132.304 37.1108 132.242 37.2769 132.239 37.4635C132.239 37.6186 132.279 37.7531 132.36 37.867C132.443 37.9809 132.556 38.0779 132.698 38.1579C132.839 38.2354 132.996 38.3009 133.169 38.3542C133.341 38.4075 133.515 38.4523 133.69 38.4887L134.49 38.6632C134.813 38.7286 135.122 38.8171 135.42 38.9286C135.72 39.0401 135.988 39.1807 136.224 39.3503C136.463 39.52 136.652 39.7248 136.791 39.9647C136.93 40.2047 137 40.4858 137 40.8081C137 41.2444 136.872 41.6286 136.616 41.9606C136.36 42.2902 135.991 42.5483 135.507 42.735C135.027 42.9192 134.444 43.0113 133.761 43.0113C133.096 43.0113 132.52 42.9216 132.031 42.7422C131.544 42.5629 131.164 42.3011 130.888 41.957C130.616 41.6128 130.469 41.1935 130.447 40.6991H131.968C131.99 40.9584 132.082 41.1741 132.243 41.3462C132.404 41.5183 132.614 41.6467 132.873 41.7316C133.134 41.8164 133.426 41.8588 133.748 41.8588C134.084 41.8588 134.379 41.8152 134.632 41.7279C134.888 41.6382 135.088 41.5146 135.232 41.3571C135.377 41.1971 135.45 41.0105 135.453 40.7972C135.45 40.6033 135.385 40.4434 135.257 40.3174C135.129 40.1889 134.95 40.0823 134.719 39.9974C134.492 39.9102 134.225 39.8326 133.919 39.7648L132.948 39.5466C132.245 39.3891 131.689 39.1504 131.28 38.8304C130.875 38.5081 130.672 38.0803 130.672 37.5471C130.672 37.1084 130.808 36.7243 131.08 36.3946C131.355 36.065 131.729 35.8093 132.202 35.6276C132.674 35.4434 133.209 35.3513 133.807 35.3513C134.412 35.3513 134.943 35.4434 135.399 35.6276C135.857 35.8093 136.217 36.0626 136.479 36.3874C136.74 36.7097 136.875 37.0805 136.883 37.4998H135.395Z" fill="#2791FF"/>
<path d="M109.268 19.0576C109.516 19.2105 109.688 19.4059 109.757 19.6935C109.799 19.9585 109.761 20.2139 109.603 20.4357C109.581 20.4632 109.559 20.4907 109.536 20.5191C109.446 20.4787 109.382 20.4311 109.31 20.3631C109.29 20.3436 109.269 20.3242 109.248 20.3042C109.226 20.2836 109.205 20.2629 109.183 20.2417C109.15 20.2102 109.15 20.2102 109.116 20.178C108.982 20.0508 108.851 19.9216 108.721 19.7902C108.649 19.7185 108.571 19.6526 108.494 19.5862C108.382 19.4864 108.278 19.3788 108.173 19.2718C108.229 19.1245 108.338 19.0814 108.474 19.0168C108.728 18.9321 109.026 18.9408 109.268 19.0576Z" fill="#2791FF"/>
<path d="M116.383 15.2753C116.504 15.371 116.568 15.467 116.612 15.6168C116.633 15.8006 116.602 15.9278 116.496 16.0809C116.347 16.223 116.224 16.2687 116.021 16.2642C115.865 16.2452 115.754 16.1798 115.644 16.0701C115.547 15.9121 115.527 15.7854 115.551 15.6033C115.589 15.443 115.662 15.3307 115.8 15.2415C116.003 15.1699 116.193 15.1638 116.383 15.2753Z" fill="#2791FF"/>
</g>
<defs>
<clipPath id="clip0_34_8531">
<rect width="137" height="48" fill="white"/>
</clipPath>
</defs>
</svg>
