<svg width="1280" height="150" viewBox="0 0 1280 150" fill="none" xmlns="http://www.w3.org/2000/svg">
<path d="M0 116.897V5.3902H42.619C50.6644 5.3902 57.3508 6.66062 62.6782 9.20145C68.0418 11.706 72.0464 15.1361 74.6919 19.4918C77.3737 23.8475 78.7146 28.784 78.7146 34.3013C78.7146 38.8385 77.8449 42.7223 76.1053 45.9528C74.3658 49.147 72.0282 51.7423 69.0927 53.7387C66.1573 55.735 62.8775 57.1688 59.2534 58.0399V59.1289C63.2037 59.3466 66.9908 60.5626 70.6149 62.7768C74.2752 64.9546 77.265 68.0399 79.5844 72.0327C81.9038 76.0254 83.0635 80.853 83.0635 86.5154C83.0635 92.2868 81.6683 97.4773 78.8777 102.087C76.0872 106.661 71.8833 110.272 66.266 112.922C60.6487 115.572 53.5818 116.897 45.0652 116.897H0ZM20.1679 100.018H41.8579C49.1785 100.018 54.4515 98.6207 57.677 95.8258C60.9386 92.9946 62.5694 89.3648 62.5694 84.9365C62.5694 81.6334 61.754 78.657 60.1232 76.0073C58.4924 73.3212 56.173 71.216 53.165 69.6915C50.157 68.1307 46.5692 67.3503 42.4015 67.3503H20.1679V100.018ZM20.1679 52.8131H40.1184C43.5975 52.8131 46.7323 52.1779 49.5228 50.9074C52.3133 49.6007 54.5059 47.7677 56.1005 45.4083C57.7313 43.0127 58.5467 40.1815 58.5467 36.9147C58.5467 32.5953 57.0246 29.0381 53.9804 26.2432C50.9724 23.4483 46.4967 22.0508 40.5533 22.0508H20.1679V52.8131Z" fill="#171717"/>
<path d="M132.112 118.53C123.74 118.53 116.51 116.788 110.422 113.303C104.37 109.782 99.7126 104.809 96.451 98.3848C93.1893 91.9238 91.5585 84.3194 91.5585 75.5717C91.5585 66.9691 93.1893 59.4192 96.451 52.922C99.7489 46.3884 104.351 41.3067 110.259 37.6769C116.166 34.0109 123.106 32.1779 131.079 32.1779C136.225 32.1779 141.081 33.0127 145.648 34.6824C150.25 36.3158 154.309 38.8566 157.824 42.3049C161.376 45.7532 164.167 50.1452 166.196 55.4809C168.226 60.7804 169.24 67.0962 169.24 74.4283V80.4719H100.8V67.1869H150.377C150.341 63.412 149.525 60.0544 147.931 57.1143C146.336 54.1379 144.107 51.7967 141.244 50.0907C138.418 48.3848 135.12 47.5318 131.351 47.5318C127.328 47.5318 123.795 48.5118 120.75 50.4719C117.706 52.3956 115.332 54.9365 113.629 58.0944C111.962 61.216 111.11 64.6461 111.074 68.3848V79.9818C111.074 84.8457 111.962 89.02 113.738 92.5045C115.514 95.9528 117.996 98.6025 121.185 100.454C124.374 102.269 128.107 103.176 132.384 103.176C135.247 103.176 137.838 102.777 140.157 101.978C142.477 101.143 144.488 99.9274 146.191 98.3303C147.895 96.7332 149.181 94.755 150.051 92.3956L168.425 94.4646C167.265 99.3285 165.054 103.575 161.793 107.205C158.567 110.799 154.436 113.593 149.399 115.59C144.361 117.55 138.599 118.53 132.112 118.53Z" fill="#171717"/>
<path d="M200.975 5.3902V116.897H181.296V5.3902H200.975Z" fill="#171717"/>
<path d="M252.931 150C245.864 150 239.794 149.038 234.72 147.114C229.647 145.227 225.569 142.686 222.489 139.492C219.409 136.298 217.27 132.759 216.074 128.875L233.796 124.574C234.593 126.207 235.753 127.822 237.275 129.419C238.797 131.053 240.845 132.396 243.418 133.448C246.027 134.537 249.307 135.082 253.257 135.082C258.838 135.082 263.459 133.721 267.119 130.998C270.78 128.312 272.61 123.884 272.61 117.713V101.869H271.631C270.617 103.902 269.131 105.989 267.174 108.131C265.253 110.272 262.698 112.069 259.509 113.521C256.356 114.973 252.387 115.699 247.604 115.699C241.189 115.699 235.373 114.192 230.154 111.18C224.971 108.131 220.84 103.593 217.76 97.5681C214.715 91.5063 213.193 83.9201 213.193 74.8094C213.193 65.6261 214.715 57.8766 217.76 51.5608C220.84 45.2087 224.99 40.3993 230.208 37.1325C235.427 33.8294 241.243 32.1779 247.658 32.1779C252.551 32.1779 256.573 33.0127 259.726 34.6824C262.915 36.3158 265.452 38.294 267.337 40.6171C269.221 42.9038 270.653 45.0635 271.631 47.0962H272.718V33.2668H292.125V118.258C292.125 125.408 290.422 131.325 287.015 136.007C283.609 140.69 278.952 144.192 273.045 146.515C267.137 148.838 260.433 150 252.931 150ZM253.094 100.236C257.262 100.236 260.813 99.2196 263.749 97.1869C266.684 95.1543 268.913 92.2323 270.435 88.4211C271.957 84.6098 272.718 80.0363 272.718 74.7005C272.718 69.4374 271.957 64.8276 270.435 60.8711C268.949 56.9147 266.739 53.8475 263.803 51.6697C260.904 49.4555 257.334 48.3485 253.094 48.3485C248.709 48.3485 245.049 49.4918 242.113 51.7786C239.178 54.0653 236.967 57.2051 235.481 61.1978C233.995 65.1543 233.252 69.6552 233.252 74.7005C233.252 79.8185 233.995 84.3013 235.481 88.1488C237.003 91.9601 239.232 94.9365 242.168 97.078C245.139 99.1833 248.782 100.236 253.094 100.236Z" fill="#171717"/>
<path d="M307.701 116.897V33.2668H327.379V116.897H307.701ZM317.595 21.3975C314.478 21.3975 311.796 20.363 309.549 18.294C307.302 16.1887 306.179 13.6661 306.179 10.726C306.179 7.74955 307.302 5.22686 309.549 3.15789C311.796 1.05263 314.478 0 317.595 0C320.747 0 323.429 1.05263 325.64 3.15789C327.887 5.22686 329.01 7.74955 329.01 10.726C329.01 13.6661 327.887 16.1887 325.64 18.294C323.429 20.363 320.747 21.3975 317.595 21.3975Z" fill="#171717"/>
<path d="M367.05 118.584C361.759 118.584 356.994 117.641 352.754 115.753C348.55 113.829 345.215 110.998 342.751 107.26C340.323 103.521 339.109 98.9111 339.109 93.4301C339.109 88.7114 339.979 84.8094 341.718 81.7241C343.458 78.6388 345.832 76.1706 348.84 74.3194C351.848 72.4682 355.236 71.0708 359.005 70.127C362.81 69.147 366.742 68.4392 370.801 68.0036C375.694 67.4955 379.662 67.0417 382.706 66.6425C385.751 66.2069 387.961 65.5535 389.338 64.6824C390.752 63.775 391.459 62.3775 391.459 60.49V60.1633C391.459 56.0617 390.244 52.8857 387.816 50.6352C385.388 48.3848 381.891 47.2595 377.325 47.2595C372.505 47.2595 368.681 48.3122 365.855 50.4174C363.064 52.5227 361.18 55.0091 360.201 57.8766L341.827 55.2632C343.277 50.1815 345.669 45.9347 349.003 42.5227C352.337 39.0744 356.414 36.4973 361.234 34.7913C366.054 33.049 371.381 32.1779 377.216 32.1779C381.239 32.1779 385.243 32.6497 389.23 33.5935C393.216 34.5372 396.858 36.098 400.156 38.2759C403.454 40.4174 406.1 43.3394 408.093 47.0417C410.122 50.7441 411.137 55.3721 411.137 60.9256V116.897H392.22V105.408H391.567C390.371 107.731 388.686 109.909 386.512 111.942C384.373 113.938 381.674 115.554 378.412 116.788C375.186 117.985 371.399 118.584 367.05 118.584ZM372.16 104.102C376.111 104.102 379.535 103.321 382.435 101.76C385.334 100.163 387.563 98.0581 389.121 95.4446C390.716 92.8312 391.513 89.9818 391.513 86.8965V77.0417C390.897 77.5499 389.846 78.0218 388.36 78.4574C386.91 78.8929 385.28 79.274 383.467 79.6007C381.655 79.9274 379.862 80.2178 378.086 80.4719C376.31 80.726 374.77 80.9437 373.465 81.1252C370.53 81.5245 367.902 82.1779 365.583 83.0853C363.263 83.9927 361.433 85.2632 360.092 86.8965C358.751 88.4936 358.081 90.5626 358.081 93.1034C358.081 96.7332 359.404 99.4737 362.049 101.325C364.695 103.176 368.065 104.102 372.16 104.102Z" fill="#171717"/>
<path d="M446.011 67.8947V116.897H426.332V33.2668H445.141V47.4773H446.12C448.04 42.7949 451.103 39.0744 455.307 36.3158C459.547 33.5572 464.783 32.1779 471.017 32.1779C476.779 32.1779 481.798 33.412 486.075 35.8802C490.387 38.3485 493.722 41.9238 496.077 46.6062C498.469 51.2886 499.647 56.9691 499.611 63.6479V116.897H479.932V66.6969C479.932 61.1071 478.482 56.7332 475.583 53.5753C472.72 50.4174 468.752 48.8385 463.678 48.8385C460.235 48.8385 457.173 49.6007 454.491 51.1252C451.846 52.6134 449.762 54.7731 448.24 57.6044C446.754 60.4356 446.011 63.8657 446.011 67.8947Z" fill="#171717"/>
<path d="M611.188 43.0127H590.857C590.277 39.6733 589.208 36.7151 587.649 34.1379C586.091 31.5245 584.152 29.3103 581.833 27.4955C579.513 25.6806 576.868 24.3194 573.896 23.412C570.961 22.4682 567.789 21.9964 564.383 21.9964C558.331 21.9964 552.967 23.5209 548.292 26.5699C543.617 29.5826 539.957 34.0109 537.311 39.8548C534.666 45.6624 533.343 52.7586 533.343 61.1434C533.343 69.6733 534.666 76.8603 537.311 82.7042C539.993 88.5118 543.653 92.9038 548.292 95.8802C552.967 98.8203 558.312 100.29 564.328 100.29C567.663 100.29 570.779 99.8548 573.679 98.9837C576.614 98.0762 579.242 96.7514 581.561 95.0091C583.917 93.2668 585.892 91.1252 587.486 88.5844C589.117 86.0436 590.241 83.1397 590.857 79.873L611.188 79.9818C610.427 85.2813 608.778 90.2541 606.241 94.9002C603.74 99.5463 600.46 103.648 596.401 107.205C592.342 110.726 587.595 113.485 582.159 115.481C576.723 117.441 570.689 118.421 564.057 118.421C554.272 118.421 545.538 116.152 537.855 111.615C530.172 107.078 524.12 100.526 519.698 91.9601C515.277 83.3938 513.066 73.1216 513.066 61.1434C513.066 49.1289 515.295 38.8566 519.753 30.3267C524.21 21.7604 530.28 15.2087 537.963 10.6715C545.646 6.1343 554.344 3.8657 564.057 3.8657C570.254 3.8657 576.016 4.73684 581.343 6.47913C586.671 8.22142 591.418 10.7804 595.586 14.1561C599.754 17.4955 603.178 21.5971 605.86 26.461C608.578 31.2886 610.354 36.8058 611.188 43.0127Z" fill="#171717"/>
<path d="M648.222 118.584C642.931 118.584 638.165 117.641 633.925 115.753C629.721 113.829 626.387 110.998 623.923 107.26C621.495 103.521 620.281 98.9111 620.281 93.4301C620.281 88.7114 621.15 84.8094 622.89 81.7241C624.629 78.6388 627.003 76.1706 630.011 74.3194C633.019 72.4682 636.408 71.0708 640.177 70.127C643.982 69.147 647.914 68.4392 651.973 68.0036C656.865 67.4955 660.834 67.0417 663.878 66.6425C666.922 66.2069 669.133 65.5535 670.51 64.6824C671.923 63.775 672.63 62.3775 672.63 60.49V60.1633C672.63 56.0617 671.416 52.8857 668.988 50.6352C666.56 48.3848 663.063 47.2595 658.496 47.2595C653.676 47.2595 649.853 48.3122 647.026 50.4174C644.236 52.5227 642.351 55.0091 641.373 57.8766L622.999 55.2632C624.448 50.1815 626.84 45.9347 630.174 42.5227C633.508 39.0744 637.585 36.4973 642.405 34.7913C647.225 33.049 652.553 32.1779 658.388 32.1779C662.41 32.1779 666.415 32.6497 670.401 33.5935C674.388 34.5372 678.03 36.098 681.328 38.2759C684.626 40.4174 687.271 43.3394 689.265 47.0417C691.294 50.7441 692.309 55.3721 692.309 60.9256V116.897H673.391V105.408H672.739C671.543 107.731 669.858 109.909 667.683 111.942C665.545 113.938 662.845 115.554 659.583 116.788C656.358 117.985 652.571 118.584 648.222 118.584ZM653.332 104.102C657.282 104.102 660.707 103.321 663.606 101.76C666.505 100.163 668.734 98.0581 670.293 95.4446C671.887 92.8312 672.684 89.9818 672.684 86.8965V77.0417C672.068 77.5499 671.017 78.0218 669.532 78.4574C668.082 78.8929 666.451 79.274 664.639 79.6007C662.827 79.9274 661.033 80.2178 659.257 80.4719C657.482 80.726 655.941 80.9437 654.637 81.1252C651.701 81.5245 649.074 82.1779 646.754 83.0853C644.435 83.9927 642.605 85.2632 641.264 86.8965C639.923 88.4936 639.253 90.5626 639.253 93.1034C639.253 96.7332 640.575 99.4737 643.221 101.325C645.866 103.176 649.237 104.102 653.332 104.102Z" fill="#171717"/>
<path d="M707.504 116.897V33.2668H726.584V47.2051H727.454C728.976 42.3775 731.586 38.657 735.282 36.0436C739.015 33.3938 743.273 32.069 748.057 32.069C749.144 32.069 750.358 32.1234 751.699 32.2323C753.076 32.3049 754.218 32.4319 755.124 32.6134V50.7441C754.29 50.4537 752.968 50.1996 751.156 49.9818C749.38 49.7278 747.658 49.6007 745.991 49.6007C742.403 49.6007 739.178 50.3811 736.315 51.9419C733.488 53.4664 731.26 55.5898 729.629 58.3122C727.998 61.0345 727.182 64.1742 727.182 67.7314V116.897H707.504Z" fill="#171717"/>
<path d="M824.979 36.0436C824.471 31.2886 822.333 27.5862 818.564 24.9365C814.831 22.2868 809.975 20.9619 803.996 20.9619C799.792 20.9619 796.186 21.5971 793.178 22.8675C790.17 24.1379 787.868 25.8621 786.274 28.0399C784.679 30.2178 783.864 32.7042 783.828 35.4991C783.828 37.8221 784.353 39.8367 785.404 41.5426C786.491 43.2486 787.959 44.7005 789.807 45.8984C791.656 47.0599 793.703 48.0399 795.95 48.8385C798.197 49.637 800.462 50.3085 802.745 50.853L813.182 53.4664C817.386 54.4465 821.427 55.7713 825.305 57.441C829.219 59.1107 832.716 61.216 835.797 63.7568C838.913 66.2976 841.378 69.3648 843.19 72.9583C845.002 76.5517 845.908 80.7622 845.908 85.5898C845.908 92.1234 844.241 97.8766 840.907 102.849C837.572 107.786 832.752 111.652 826.447 114.446C820.177 117.205 812.585 118.584 803.669 118.584C795.008 118.584 787.488 117.241 781.11 114.555C774.767 111.869 769.802 107.949 766.215 102.795C762.663 97.6407 760.742 91.3612 760.452 83.9564H780.294C780.584 87.8403 781.78 91.0708 783.882 93.6479C785.984 96.225 788.72 98.1488 792.091 99.4192C795.497 100.69 799.302 101.325 803.506 101.325C807.891 101.325 811.733 100.672 815.031 99.3648C818.365 98.0218 820.974 96.1706 822.859 93.8112C824.743 91.4156 825.704 88.6207 825.74 85.4265C825.704 82.5227 824.852 80.127 823.185 78.2396C821.518 76.3158 819.18 74.7187 816.172 73.4483C813.201 72.1416 809.721 70.98 805.735 69.9637L793.069 66.6969C783.9 64.3376 776.652 60.7623 771.325 55.971C766.033 51.1434 763.388 44.7368 763.388 36.7514C763.388 30.1815 765.164 24.4283 768.715 19.4918C772.303 14.5554 777.177 10.726 783.338 8.00363C789.499 5.24501 796.476 3.8657 804.267 3.8657C812.168 3.8657 819.09 5.24501 825.033 8.00363C831.013 10.726 835.706 14.5191 839.113 19.3829C842.519 24.2105 844.277 29.7641 844.386 36.0436H824.979Z" fill="#171717"/>
<path d="M895.391 118.53C887.019 118.53 879.789 116.788 873.701 113.303C867.649 109.782 862.992 104.809 859.73 98.3848C856.469 91.9238 854.838 84.3194 854.838 75.5717C854.838 66.9691 856.469 59.4192 859.73 52.922C863.028 46.3884 867.631 41.3067 873.538 37.6769C879.445 34.0109 886.385 32.1779 894.358 32.1779C899.504 32.1779 904.36 33.0127 908.927 34.6824C913.529 36.3158 917.588 38.8566 921.104 42.3049C924.655 45.7532 927.446 50.1452 929.475 55.4809C931.505 60.7804 932.519 67.0962 932.519 74.4283V80.4719H864.079V67.1869H913.656C913.62 63.412 912.805 60.0544 911.21 57.1143C909.615 54.1379 907.387 51.7967 904.524 50.0907C901.697 48.3848 898.399 47.5318 894.63 47.5318C890.607 47.5318 887.074 48.5118 884.029 50.4719C880.985 52.3956 878.612 54.9365 876.908 58.0944C875.241 61.216 874.39 64.6461 874.353 68.3848V79.9818C874.353 84.8457 875.241 89.02 877.017 92.5045C878.793 95.9528 881.275 98.6025 884.464 100.454C887.654 102.269 891.386 103.176 895.663 103.176C898.526 103.176 901.117 102.777 903.436 101.978C905.756 101.143 907.767 99.9274 909.47 98.3303C911.174 96.7332 912.46 94.755 913.33 92.3956L931.704 94.4646C930.544 99.3285 928.334 103.575 925.072 107.205C921.847 110.799 917.715 113.593 912.678 115.59C907.64 117.55 901.878 118.53 895.391 118.53Z" fill="#171717"/>
<path d="M944.575 116.897V33.2668H963.656V47.2051H964.526C966.048 42.3775 968.657 38.657 972.354 36.0436C976.086 33.3938 980.345 32.069 985.128 32.069C986.216 32.069 987.43 32.1234 988.771 32.2323C990.148 32.3049 991.289 32.4319 992.195 32.6134V50.7441C991.362 50.4537 990.039 50.1996 988.227 49.9818C986.451 49.7278 984.73 49.6007 983.063 49.6007C979.475 49.6007 976.249 50.3811 973.386 51.9419C970.56 53.4664 968.331 55.5898 966.7 58.3122C965.069 61.0345 964.254 64.1742 964.254 67.7314V116.897H944.575Z" fill="#171717"/>
<path d="M1077.8 33.2668L1048.07 116.897H1026.32L996.586 33.2668H1017.57L1036.76 95.3902H1037.63L1056.87 33.2668H1077.8Z" fill="#171717"/>
<path d="M1086.83 116.897V33.2668H1106.5V116.897H1086.83ZM1096.72 21.3975C1093.6 21.3975 1090.92 20.363 1088.67 18.294C1086.43 16.1887 1085.3 13.6661 1085.3 10.726C1085.3 7.74955 1086.43 5.22686 1088.67 3.15789C1090.92 1.05263 1093.6 0 1096.72 0C1099.87 0 1102.55 1.05263 1104.77 3.15789C1107.01 5.22686 1108.14 7.74955 1108.14 10.726C1108.14 13.6661 1107.01 16.1887 1104.77 18.294C1102.55 20.363 1099.87 21.3975 1096.72 21.3975Z" fill="#171717"/>
<path d="M1158.57 118.53C1150.23 118.53 1143.08 116.697 1137.1 113.031C1131.15 109.365 1126.57 104.301 1123.34 97.8403C1120.16 91.343 1118.56 83.8657 1118.56 75.4083C1118.56 66.9147 1120.19 59.4192 1123.45 52.922C1126.71 46.3884 1131.32 41.3067 1137.26 37.6769C1143.24 34.0109 1150.31 32.1779 1158.46 32.1779C1165.24 32.1779 1171.24 33.4301 1176.45 35.9347C1181.71 38.4029 1185.9 41.9056 1189.01 46.4428C1192.13 50.9437 1193.9 56.2069 1194.34 62.2323H1175.53C1174.77 58.2033 1172.96 54.8457 1170.09 52.1597C1167.27 49.4374 1163.48 48.0762 1158.73 48.0762C1154.71 48.0762 1151.18 49.1652 1148.13 51.343C1145.09 53.4846 1142.71 56.5699 1141.01 60.5989C1139.34 64.628 1138.51 69.4555 1138.51 75.0817C1138.51 80.7804 1139.34 85.6806 1141.01 89.7822C1142.68 93.8475 1145.02 96.9873 1148.02 99.2015C1151.07 101.379 1154.64 102.468 1158.73 102.468C1161.63 102.468 1164.22 101.924 1166.51 100.835C1168.83 99.7096 1170.77 98.0944 1172.32 95.9891C1173.88 93.8839 1174.95 91.3249 1175.53 88.3122H1194.34C1193.87 94.2287 1192.13 99.4737 1189.12 104.047C1186.11 108.584 1182.02 112.142 1176.84 114.719C1171.65 117.26 1165.56 118.53 1158.57 118.53Z" fill="#171717"/>
<path d="M1242.87 118.53C1234.5 118.53 1227.27 116.788 1221.18 113.303C1215.13 109.782 1210.47 104.809 1207.21 98.3848C1203.95 91.9238 1202.32 84.3194 1202.32 75.5717C1202.32 66.9691 1203.95 59.4192 1207.21 52.922C1210.51 46.3884 1215.11 41.3067 1221.02 37.6769C1226.93 34.0109 1233.87 32.1779 1241.84 32.1779C1246.98 32.1779 1251.84 33.0127 1256.41 34.6824C1261.01 36.3158 1265.07 38.8566 1268.58 42.3049C1272.14 45.7532 1274.93 50.1452 1276.96 55.4809C1278.99 60.7804 1280 67.0962 1280 74.4283V80.4719H1211.56V67.1869H1261.14C1261.1 63.412 1260.29 60.0544 1258.69 57.1143C1257.1 54.1379 1254.87 51.7967 1252 50.0907C1249.18 48.3848 1245.88 47.5318 1242.11 47.5318C1238.09 47.5318 1234.55 48.5118 1231.51 50.4719C1228.47 52.3956 1226.09 54.9365 1224.39 58.0944C1222.72 61.216 1221.87 64.6461 1221.83 68.3848V79.9818C1221.83 84.8457 1222.72 89.02 1224.5 92.5045C1226.27 95.9528 1228.76 98.6025 1231.94 100.454C1235.13 102.269 1238.87 103.176 1243.14 103.176C1246.01 103.176 1248.6 102.777 1250.92 101.978C1253.24 101.143 1255.25 99.9274 1256.95 98.3303C1258.65 96.7332 1259.94 94.755 1260.81 92.3956L1279.18 94.4646C1278.02 99.3285 1275.81 103.575 1272.55 107.205C1269.33 110.799 1265.2 113.593 1260.16 115.59C1255.12 117.55 1249.36 118.53 1242.87 118.53Z" fill="#171717"/>
</svg>
